<svg width="163" height="355" viewBox="0 0 163 355" fill="none" xmlns="http://www.w3.org/2000/svg">
<g filter="url(#filter0_d_1881_798)">
<mask id="path-1-inside-1_1881_798" fill="white">
<path d="M4.77149 78V21L108.271 -2.86102e-06H158.271V347H89.7715V61.5L4.77149 78Z"/>
</mask>
<path d="M4.77149 78V21L108.271 -2.86102e-06H158.271V347H89.7715V61.5L4.77149 78Z" fill="#F70017"/>
<path d="M4.77149 78H3.77149V79.2128L4.96205 78.9817L4.77149 78ZM4.77149 21L4.57264 20.02L3.77149 20.1825V21H4.77149ZM108.271 -2.86102e-06V-1H108.171L108.073 -0.980033L108.271 -2.86102e-06ZM158.271 -2.86102e-06H159.271V-1H158.271V-2.86102e-06ZM158.271 347V348H159.271V347H158.271ZM89.7715 347H88.7715V348H89.7715V347ZM89.7715 61.5H90.7715V60.2872L89.5809 60.5183L89.7715 61.5ZM5.77149 78V21H3.77149V78H5.77149ZM4.97033 21.98L108.47 0.980028L108.073 -0.980033L4.57264 20.02L4.97033 21.98ZM108.271 0.999997H158.271V-1H108.271V0.999997ZM157.271 -2.86102e-06V347H159.271V-2.86102e-06H157.271ZM158.271 346H89.7715V348H158.271V346ZM90.7715 347V61.5H88.7715V347H90.7715ZM89.5809 60.5183L4.58093 77.0183L4.96205 78.9817L89.9621 62.4817L89.5809 60.5183Z" fill="white" mask="url(#path-1-inside-1_1881_798)"/>
</g>
<defs>
<filter id="filter0_d_1881_798" x="0.771484" y="0" width="161.5" height="355" filterUnits="userSpaceOnUse" color-interpolation-filters="sRGB">
<feFlood flood-opacity="0" result="BackgroundImageFix"/>
<feColorMatrix in="SourceAlpha" type="matrix" values="0 0 0 0 0 0 0 0 0 0 0 0 0 0 0 0 0 0 127 0" result="hardAlpha"/>
<feOffset dy="4"/>
<feGaussianBlur stdDeviation="2"/>
<feComposite in2="hardAlpha" operator="out"/>
<feColorMatrix type="matrix" values="0 0 0 0 0 0 0 0 0 0 0 0 0 0 0 0 0 0 0.25 0"/>
<feBlend mode="normal" in2="BackgroundImageFix" result="effect1_dropShadow_1881_798"/>
<feBlend mode="normal" in="SourceGraphic" in2="effect1_dropShadow_1881_798" result="shape"/>
</filter>
</defs>
</svg>
