<svg width="241" height="352" viewBox="0 0 241 352" fill="none" xmlns="http://www.w3.org/2000/svg">
<mask id="path-1-inside-1_1881_797" fill="white">
<path d="M161.771 107.5C161.771 88.8333 156.271 75.6667 145.271 68C134.605 60 119.271 56 99.2715 56C74.9382 56 49.1048 60 21.7715 68V11.5C46.7715 3.83331 76.6048 -2.7895e-05 111.271 -2.7895e-05C149.605 -2.7895e-05 179.105 8.16664 199.772 24.5C220.771 40.8333 231.271 65.5 231.271 98.5C231.271 118.833 227.771 137 220.771 153C214.105 169 201.938 186.333 184.271 205C166.605 223.667 140.438 246.833 105.771 274.5L83.7715 292V296H240.271V352H0.271485V290C43.2715 255.667 76.1048 227.833 98.7715 206.5C121.771 184.833 137.938 166.5 147.271 151.5C156.938 136.5 161.771 121.833 161.771 107.5Z"/>
</mask>
<path d="M161.771 107.5C161.771 88.8333 156.271 75.6667 145.271 68C134.605 60 119.271 56 99.2715 56C74.9382 56 49.1048 60 21.7715 68V11.5C46.7715 3.83331 76.6048 -2.7895e-05 111.271 -2.7895e-05C149.605 -2.7895e-05 179.105 8.16664 199.772 24.5C220.771 40.8333 231.271 65.5 231.271 98.5C231.271 118.833 227.771 137 220.771 153C214.105 169 201.938 186.333 184.271 205C166.605 223.667 140.438 246.833 105.771 274.5L83.7715 292V296H240.271V352H0.271485V290C43.2715 255.667 76.1048 227.833 98.7715 206.5C121.771 184.833 137.938 166.5 147.271 151.5C156.938 136.5 161.771 121.833 161.771 107.5Z" fill="#F70017"/>
<path d="M145.271 68L144.671 68.8L144.685 68.8104L144.7 68.8204L145.271 68ZM21.7715 68H20.7715V69.3346L22.0524 68.9597L21.7715 68ZM21.7715 11.5L21.4783 10.5439L20.7715 10.7607V11.5H21.7715ZM199.772 24.5L199.151 25.2846L199.158 25.2893L199.772 24.5ZM220.771 153L219.855 152.599L219.852 152.607L219.848 152.615L220.771 153ZM184.271 205L184.998 205.687L184.998 205.687L184.271 205ZM105.771 274.5L106.394 275.283L106.395 275.282L105.771 274.5ZM83.7715 292L83.149 291.217L82.7715 291.518V292H83.7715ZM83.7715 296H82.7715V297H83.7715V296ZM240.271 296H241.271V295H240.271V296ZM240.271 352V353H241.271V352H240.271ZM0.271485 352H-0.728515V353H0.271485V352ZM0.271485 290L-0.352471 289.219L-0.728515 289.519V290H0.271485ZM98.7715 206.5L99.4569 207.228L99.4572 207.228L98.7715 206.5ZM147.271 151.5L146.431 150.958L146.427 150.965L146.422 150.972L147.271 151.5ZM162.771 107.5C162.771 88.645 157.208 75.1006 145.843 67.1796L144.7 68.8204C155.335 76.2327 160.771 89.0216 160.771 107.5H162.771ZM145.871 67.2C134.964 59.0197 119.385 55 99.2715 55V57C119.158 57 134.245 60.9803 144.671 68.8L145.871 67.2ZM99.2715 55C74.8285 55 48.9 59.018 21.4906 67.0403L22.0524 68.9597C49.3096 60.982 75.0478 57 99.2715 57V55ZM22.7715 68V11.5H20.7715V68H22.7715ZM22.0647 12.456C46.9445 4.82621 76.6739 0.999972 111.271 0.999972V-1.00003C76.5357 -1.00003 46.5985 2.8404 21.4783 10.5439L22.0647 12.456ZM111.271 0.999972C149.479 0.999972 178.726 9.14179 199.151 25.2845L200.392 23.7154C179.484 7.19149 149.731 -1.00003 111.271 -1.00003V0.999972ZM199.158 25.2893C219.856 41.388 230.271 65.7266 230.271 98.5H232.271C232.271 65.2734 221.687 40.2786 200.385 23.7106L199.158 25.2893ZM230.271 98.5C230.271 118.718 226.792 136.745 219.855 152.599L221.688 153.401C228.751 137.255 232.271 118.949 232.271 98.5H230.271ZM219.848 152.615C213.245 168.463 201.165 185.696 183.545 204.313L184.998 205.687C202.711 186.971 214.964 169.537 221.695 153.385L219.848 152.615ZM183.545 204.313C165.925 222.93 139.8 246.063 105.148 273.718L106.395 275.282C141.076 247.603 167.284 224.403 184.998 205.687L183.545 204.313ZM105.149 273.717L83.149 291.217L84.394 292.783L106.394 275.283L105.149 273.717ZM82.7715 292V296H84.7715V292H82.7715ZM83.7715 297H240.271V295H83.7715V297ZM239.271 296V352H241.271V296H239.271ZM240.271 351H0.271485V353H240.271V351ZM1.27148 352V290H-0.728515V352H1.27148ZM0.895441 290.781C43.9032 256.442 76.761 228.589 99.4569 207.228L98.0861 205.772C75.4486 227.078 42.6397 254.891 -0.352471 289.219L0.895441 290.781ZM99.4572 207.228C122.479 185.541 138.719 167.138 148.121 152.028L146.422 150.972C137.157 165.862 121.064 184.126 98.0858 205.772L99.4572 207.228ZM148.112 152.042C157.857 136.92 162.771 122.068 162.771 107.5H160.771C160.771 121.599 156.019 136.08 146.431 150.958L148.112 152.042Z" fill="white" mask="url(#path-1-inside-1_1881_797)"/>
</svg>
