<svg width="21" height="26" viewBox="0 0 21 26" fill="none" xmlns="http://www.w3.org/2000/svg">
<path d="M6.21838 25.0744C8.69435 25.8564 11.4803 25.3039 13.9634 23.5383C16.4466 21.7727 18.4234 18.9388 19.4591 15.6598C20.4947 12.3809 20.5044 8.92555 19.486 6.05399C18.4675 3.18243 16.5044 1.12985 14.0284 0.347799C11.5524 -0.43425 8.76644 0.118288 6.28333 1.88386C3.80022 3.64944 1.82339 6.48342 0.787715 9.76237C-0.247959 13.0413 -0.257637 16.4966 0.76081 19.3682C1.77926 22.2398 3.7424 24.2923 6.21838 25.0744Z" fill="#A56021"/>
<path d="M4.40717 10.9077C6.30482 4.90005 11.1221 0.916143 15.7641 1.15469C15.2219 0.813482 14.6383 0.542969 14.0274 0.349724C8.8715 -1.27891 2.94333 2.93596 0.786536 9.76402C-1.37026 16.5921 1.06096 23.4475 6.21682 25.0761C6.82782 25.2688 7.46094 25.3826 8.1008 25.4148C4.16407 22.9435 2.50952 16.9153 4.40717 10.9077Z" fill="#8C4C17"/>
<path d="M6.52937 25.038C6.35236 25.0381 6.17884 24.9887 6.02841 24.8954C5.87798 24.8022 5.75664 24.6687 5.67808 24.51C3.77255 20.6648 4.58103 17.6921 5.59502 15.8755C6.68438 13.9237 8.22995 12.8852 8.29517 12.8419L8.30504 12.8355C11.4266 10.8221 13.2233 8.62754 13.645 6.31279C14.0826 3.9109 12.8655 2.2332 12.8531 2.21649C12.5411 1.79521 12.6296 1.20079 13.0509 0.88868C13.4721 0.576661 14.0666 0.665131 14.3787 1.08641C14.4491 1.18143 16.0961 3.4508 15.5126 6.65301C14.9935 9.50285 12.917 12.1181 9.34105 14.4262C9.10696 14.5848 4.4824 17.8222 7.37895 23.667C7.6117 24.1368 7.41967 24.7062 6.94989 24.939C6.81927 25.0041 6.67532 25.038 6.52937 25.038Z" fill="#8C4C17"/>
<path d="M8.65625 21.5166C8.65625 21.8943 8.80627 22.2565 9.07329 22.5235C9.34032 22.7905 9.70249 22.9405 10.0801 22.9405C10.4578 22.9405 10.8199 22.7905 11.087 22.5235C11.354 22.2565 11.504 21.8943 11.504 21.5166C11.504 21.139 11.354 20.7768 11.087 20.5098C10.8199 20.2428 10.4578 20.0928 10.0801 20.0928C9.70249 20.0928 9.34032 20.2428 9.07329 20.5098C8.80627 20.7768 8.65625 21.139 8.65625 21.5166Z" fill="#8C4C17"/>
</svg>
