<svg width="25" height="22" viewBox="0 0 25 22" fill="none" xmlns="http://www.w3.org/2000/svg">
<path d="M7.22474 19.1275C8.68888 19.9966 10.2679 20.6394 11.8718 21.0193C13.4756 21.3991 15.0728 21.5085 16.5721 21.3413C18.0715 21.1741 19.4436 20.7334 20.6102 20.0446C21.7768 19.3557 22.715 18.4321 23.3713 17.3265C24.0275 16.2209 24.3889 14.955 24.4349 13.601C24.4809 12.247 24.2105 10.8314 23.6393 9.43509C23.068 8.0388 22.207 6.68912 21.1054 5.46311C20.0038 4.23711 18.6833 3.1588 17.2191 2.28974C15.755 1.42066 14.1759 0.777848 12.5721 0.398012C10.9683 0.0181767 9.37107 -0.0912449 7.87173 0.0759947C6.37238 0.243234 5.00023 0.68386 3.83363 1.37271C2.66704 2.06157 1.72883 2.98516 1.07258 4.09075C0.416339 5.19635 0.0549071 6.46229 0.0089249 7.81631C-0.0370573 9.17033 0.23331 10.5859 0.804592 11.9822C1.37587 13.3785 2.23688 14.7282 3.33845 15.9542C4.44002 17.1802 5.76058 18.2585 7.22474 19.1275Z" fill="#E58D23"/>
<path d="M9.16209 15.8601C3.74424 12.6445 0.961703 7.0469 2.25079 2.58105C1.79508 3.03137 1.39878 3.53807 1.07153 4.08885C-1.68813 8.73856 1.0665 15.4706 7.2241 19.1254C13.3817 22.7801 20.6107 21.9734 23.3704 17.3237C23.6971 16.7726 23.9521 16.182 24.1291 15.5663C20.8265 18.837 14.5799 19.0757 9.16209 15.8601Z" fill="#BF6C0D"/>
<path d="M20.0749 18.0382C17.3478 18.0383 15.4582 16.9174 14.2691 15.8344C12.6166 14.3294 11.9572 12.5879 11.9299 12.5145C11.9285 12.5108 11.9271 12.5071 11.9258 12.5034C10.6826 9.02394 8.96578 6.77982 6.82322 5.83323C4.60188 4.85199 2.69598 5.62601 2.61586 5.65933C2.13478 5.86721 1.57852 5.64461 1.37063 5.16334C1.16275 4.68207 1.38686 4.1223 1.86804 3.91432C1.97682 3.86742 4.56135 2.78025 7.54665 4.07749C10.2034 5.23188 12.2773 7.84915 13.7108 11.8566C13.812 12.1207 15.9118 17.3607 22.2621 15.871C22.3835 15.8425 22.5093 15.8382 22.6323 15.8583C22.7554 15.8784 22.8732 15.9226 22.9792 15.9883C23.0852 16.054 23.1771 16.1399 23.2499 16.2411C23.3226 16.3424 23.3747 16.457 23.4031 16.5784C23.5229 17.0887 23.2063 17.5996 22.6958 17.7194C21.7479 17.9416 20.8751 18.0382 20.0749 18.0382Z" fill="#A56021"/>
<path d="M17.1172 7.92388C17.1172 8.30151 17.2672 8.66368 17.5342 8.93071C17.8013 9.19774 18.1634 9.34775 18.5411 9.34775C18.9187 9.34775 19.2809 9.19774 19.5479 8.93071C19.8149 8.66368 19.9649 8.30151 19.9649 7.92388C19.9649 7.54624 19.8149 7.18407 19.5479 6.91704C19.2809 6.65002 18.9187 6.5 18.5411 6.5C18.1634 6.5 17.8013 6.65002 17.5342 6.91704C17.2672 7.18407 17.1172 7.54624 17.1172 7.92388Z" fill="#BF6C0D"/>
<path d="M19.6309 12.1592C19.6309 12.5369 19.7809 12.899 20.0479 13.1661C20.3149 13.4331 20.6771 13.5831 21.0547 13.5831C21.4324 13.5831 21.7945 13.4331 22.0616 13.1661C22.3286 12.899 22.4786 12.5369 22.4786 12.1592C22.4786 11.7816 22.3286 11.4194 22.0616 11.1524C21.7945 10.8854 21.4324 10.7354 21.0547 10.7354C20.6771 10.7354 20.3149 10.8854 20.0479 11.1524C19.7809 11.4194 19.6309 11.7816 19.6309 12.1592Z" fill="#BF6C0D"/>
</svg>
