<svg width="181" height="168" viewBox="0 0 181 168" fill="none" xmlns="http://www.w3.org/2000/svg">
<path d="M140.345 77.6027C139.095 77.1697 138.422 75.7984 138.855 74.5474C139.288 73.2964 140.657 72.6227 141.907 73.0558C148.083 75.1729 155.028 72.8393 161.757 66.897C167.693 61.6283 172.836 53.9538 175.119 47.3378C176.897 42.1413 176.441 39.2784 173.965 37.041C172.716 35.9344 170.913 34.8758 168.318 33.7932C166.203 32.9031 164.281 32.2054 159.282 30.4973C158.128 30.1123 157.552 29.9199 156.855 29.6793C155.605 29.2462 154.932 27.8749 155.365 26.6239C155.797 25.3729 157.167 24.6993 158.417 25.1323C159.114 25.3729 159.666 25.5654 160.82 25.9503C165.963 27.7065 167.909 28.4042 170.192 29.3665C173.244 30.6657 175.479 31.9407 177.186 33.4804C181.247 37.1373 182.04 42.0451 179.685 48.9257C177.137 56.3355 171.538 64.7077 164.977 70.5056C157.023 77.4825 148.42 80.3935 140.345 77.6027ZM45.7803 83.5691C47.1021 83.3767 48.3037 84.2909 48.4959 85.59C48.6882 86.9132 47.775 88.1161 46.4773 88.3085C33.6203 90.1851 22.9022 92.9036 15.4524 96.1514C8.36302 99.2309 4.80633 102.551 4.80633 105.342C4.80633 109.72 13.1934 114.869 28.1411 118.742C43.9059 122.832 65.3421 125.189 88.1963 125.189C111.05 125.189 132.487 122.832 148.251 118.742C163.199 114.869 171.586 109.72 171.586 105.342C171.586 102.551 168.102 99.279 161.132 96.2477C153.803 93.0239 143.229 90.3294 130.564 88.4288C129.242 88.2364 128.353 87.0094 128.545 85.6862C128.738 84.363 129.963 83.4729 131.285 83.6654C158.994 87.8033 176.393 95.4538 176.393 105.342C176.393 112.92 166.491 118.982 149.453 123.409C133.256 127.619 111.459 130.001 88.1963 130.001C64.9336 130.001 43.1369 127.619 26.9395 123.409C9.90105 119.006 0 112.92 0 105.342C0 95.3816 17.7113 87.683 45.7803 83.5691Z" fill="#262626"/>
<path d="M59.8388 94.0083C60.4864 93.9348 61.0861 94.4245 61.1581 95.11C61.23 95.7955 60.7503 96.3831 60.0786 96.4565C50.7236 97.4113 42.8557 98.8313 37.3626 100.545C32.1573 102.161 29.4227 103.997 29.4227 105.344C29.4227 106.249 30.7181 107.449 33.4046 108.673C36.3071 109.995 40.5769 111.195 45.9501 112.223C57.0083 114.329 72.0004 115.553 88.024 115.553C104.048 115.553 119.016 114.353 130.098 112.223C135.471 111.195 139.741 109.995 142.643 108.673C145.33 107.449 146.625 106.249 146.625 105.344C146.625 104.022 144.011 102.234 138.973 100.643C133.672 98.9537 126.044 97.5337 116.953 96.5789C116.305 96.5055 115.825 95.9179 115.873 95.2324C115.945 94.5714 116.521 94.0817 117.193 94.1307C126.428 95.11 134.2 96.5544 139.669 98.2927C145.69 100.202 149 102.455 149 105.344C149 109.359 142.308 112.37 130.506 114.622C119.28 116.777 104.144 118.001 88 118.001C71.8565 118.001 56.7204 116.777 45.4943 114.622C33.6925 112.37 27 109.359 27 105.344C27 102.43 30.4302 100.153 36.6429 98.2192C42.328 96.432 50.3398 94.9876 59.8388 94.0083Z" fill="#262626"/>
<path d="M112.163 98.45C112.163 97.103 113.251 96.001 114.581 96.001C115.912 96.001 117 97.103 117 98.45V105.087C117 107.56 115.138 109.544 112.55 110.303C104.374 112.776 96.1751 114.001 88 114.001C79.8249 114.001 71.6255 112.776 63.4504 110.303C60.8624 109.519 59 107.56 59 105.087V98.45C59 97.103 60.0884 96.001 61.4187 96.001C62.749 96.001 63.8374 97.103 63.8374 98.45V105.013C63.8615 105.038 63.8615 105.062 63.9099 105.087C64.0792 105.283 64.4178 105.454 64.8532 105.601C72.593 107.928 80.3086 109.103 88.0242 109.103C95.7398 109.103 103.48 107.952 111.195 105.601C111.631 105.479 111.945 105.283 112.138 105.087C112.163 105.062 112.187 105.013 112.211 105.013V98.45H112.163Z" fill="#524031"/>
<mask id="path-4-outside-1_1123_1049" maskUnits="userSpaceOnUse" x="17.8301" y="0" width="140" height="104" fill="black">
<rect fill="white" x="17.8301" width="140" height="104"/>
<path fill-rule="evenodd" clip-rule="evenodd" d="M39.7723 28.4795C52.5812 31.1915 69.8118 32.7515 88.196 32.7515C106.58 32.7515 123.811 31.2155 136.62 28.5035C143.957 26.9488 149.635 25.0962 153.346 22.8596C152.01 44.3213 144.558 65.5776 133.399 79.2149C122.297 92.7507 106.965 99.2306 88.196 99.2306C69.7157 99.2306 54.6719 93.0387 43.6895 80.0309C32.1145 66.3202 24.4004 44.7209 23.0441 22.8382C26.7555 25.0716 32.4336 26.9245 39.7723 28.4795ZM135.61 23.7996C123.162 26.4396 106.268 27.9515 88.196 27.9515C70.1242 27.9515 53.23 26.4396 40.7817 23.7996C34.7978 22.5276 30.0396 21.0397 26.8434 19.4317C24.0557 18.0397 22.8301 16.7678 22.8301 15.9758C22.8301 15.1838 24.0557 13.8878 26.8434 12.5198C30.0396 10.9119 34.7978 9.42389 40.7817 8.15192C53.23 5.51197 70.1483 4 88.196 4C106.244 4 123.162 5.51197 135.61 8.15192C141.594 9.42389 146.352 10.9119 149.549 12.5198C152.336 13.9118 153.562 15.1838 153.562 15.9758C153.562 16.7678 152.312 18.0397 149.549 19.4317C146.352 21.0397 141.594 22.5276 135.61 23.7996Z"/>
</mask>
<path fill-rule="evenodd" clip-rule="evenodd" d="M39.7723 28.4795C52.5812 31.1915 69.8118 32.7515 88.196 32.7515C106.58 32.7515 123.811 31.2155 136.62 28.5035C143.957 26.9488 149.635 25.0962 153.346 22.8596C152.01 44.3213 144.558 65.5776 133.399 79.2149C122.297 92.7507 106.965 99.2306 88.196 99.2306C69.7157 99.2306 54.6719 93.0387 43.6895 80.0309C32.1145 66.3202 24.4004 44.7209 23.0441 22.8382C26.7555 25.0716 32.4336 26.9245 39.7723 28.4795ZM135.61 23.7996C123.162 26.4396 106.268 27.9515 88.196 27.9515C70.1242 27.9515 53.23 26.4396 40.7817 23.7996C34.7978 22.5276 30.0396 21.0397 26.8434 19.4317C24.0557 18.0397 22.8301 16.7678 22.8301 15.9758C22.8301 15.1838 24.0557 13.8878 26.8434 12.5198C30.0396 10.9119 34.7978 9.42389 40.7817 8.15192C53.23 5.51197 70.1483 4 88.196 4C106.244 4 123.162 5.51197 135.61 8.15192C141.594 9.42389 146.352 10.9119 149.549 12.5198C152.336 13.9118 153.562 15.1838 153.562 15.9758C153.562 16.7678 152.312 18.0397 149.549 19.4317C146.352 21.0397 141.594 22.5276 135.61 23.7996Z" fill="#FFC470"/>
<path d="M39.7723 28.4795L38.9432 32.3927L38.9438 32.3928L39.7723 28.4795ZM136.62 28.5035L137.448 32.4168L137.449 32.4167L136.62 28.5035ZM153.346 22.8596L157.338 23.1081L157.812 15.4982L151.282 19.4336L153.346 22.8596ZM133.399 79.2149L136.492 81.7517L136.495 81.748L133.399 79.2149ZM43.6895 80.0309L40.6331 82.6113L40.6332 82.6114L43.6895 80.0309ZM23.0441 22.8382L25.1066 19.4109L18.5806 15.4837L19.0518 23.0857L23.0441 22.8382ZM135.61 23.7996L136.44 27.7126L136.442 27.7122L135.61 23.7996ZM40.7817 23.7996L39.95 27.7122L39.9518 27.7126L40.7817 23.7996ZM26.8434 19.4317L28.641 15.8584L28.6303 15.853L26.8434 19.4317ZM26.8434 12.5198L28.6055 16.1108L28.6233 16.102L28.641 16.0931L26.8434 12.5198ZM40.7817 8.15192L39.9518 4.23894L39.95 4.23934L40.7817 8.15192ZM135.61 8.15192L136.442 4.23934L136.44 4.23894L135.61 8.15192ZM149.549 12.5198L147.751 16.0931L147.762 16.0985L149.549 12.5198ZM149.549 19.4317L151.346 23.005L151.348 23.0041L149.549 19.4317ZM88.196 28.7515C69.9996 28.7515 53.061 27.2044 40.6009 24.5663L38.9438 32.3928C52.1014 35.1786 69.624 36.7515 88.196 36.7515V28.7515ZM135.791 24.5903C123.334 27.2277 106.397 28.7515 88.196 28.7515V36.7515C106.763 36.7515 124.287 35.2033 137.448 32.4168L135.791 24.5903ZM151.282 19.4336C148.158 21.3161 143.014 23.0598 135.79 24.5904L137.449 32.4167C144.9 30.8377 151.112 28.8763 155.411 26.2856L151.282 19.4336ZM136.495 81.748C148.301 67.32 155.963 45.2026 157.338 23.1081L149.354 22.6112C148.057 43.44 140.815 63.8353 130.304 76.6818L136.495 81.748ZM88.196 103.231C107.984 103.231 124.523 96.3434 136.492 81.7517L130.307 76.6781C120.07 89.1579 105.945 95.2306 88.196 95.2306V103.231ZM40.6332 82.6114C52.492 96.6571 68.7307 103.231 88.196 103.231V95.2306C70.7007 95.2306 56.8519 89.4202 46.7458 77.4504L40.6332 82.6114ZM19.0518 23.0857C20.4481 45.6134 28.3801 68.0975 40.6331 82.6113L46.7459 77.4506C35.8489 64.5429 28.3528 43.8284 27.0365 22.5908L19.0518 23.0857ZM40.6015 24.5664C33.377 23.0356 28.2316 21.2915 25.1066 19.4109L20.9817 26.2655C25.2794 28.8518 31.4901 30.8134 38.9432 32.3927L40.6015 24.5664ZM88.196 31.9515C106.45 31.9515 123.639 30.4275 136.44 27.7126L134.78 19.8866C122.685 22.4517 106.085 23.9515 88.196 23.9515V31.9515ZM39.9518 27.7126C52.7534 30.4275 69.9417 31.9515 88.196 31.9515V23.9515C70.3068 23.9515 53.7067 22.4517 41.6115 19.8866L39.9518 27.7126ZM25.0457 23.005C28.6907 24.8388 33.835 26.4124 39.95 27.7122L41.6134 19.887C35.7606 18.6429 31.3884 17.2406 28.641 15.8584L25.0457 23.005ZM18.8301 15.9758C18.8301 17.1835 19.2822 18.1515 19.6775 18.7811C20.0891 19.4366 20.6037 19.99 21.1114 20.4483C22.1265 21.3643 23.4714 22.2189 25.0564 23.0104L28.6303 15.853C27.4276 15.2525 26.7659 14.7751 26.4712 14.5092C26.3242 14.3765 26.3581 14.3764 26.4527 14.5271C26.5311 14.652 26.8301 15.1641 26.8301 15.9758H18.8301ZM25.0812 8.9289C23.4803 9.71448 22.1259 10.5741 21.104 11.501C20.593 11.9645 20.0798 12.5215 19.6705 13.1783C19.2789 13.8066 18.8301 14.7728 18.8301 15.9758H26.8301C26.8301 16.7828 26.5345 17.2899 26.4598 17.4098C26.3674 17.558 26.3348 17.5571 26.4787 17.4266C26.7665 17.1655 27.4187 16.6932 28.6055 16.1108L25.0812 8.9289ZM39.95 4.23934C33.835 5.53919 28.6907 7.11279 25.0457 8.94655L28.641 16.0931C31.3884 14.7109 35.7606 13.3086 41.6134 12.0645L39.95 4.23934ZM88.196 0C69.9659 0 52.7535 1.52406 39.9518 4.23894L41.6115 12.0649C53.7065 9.49988 70.3306 8 88.196 8V0ZM136.44 4.23894C123.638 1.52406 106.426 0 88.196 0V8C106.061 8 122.685 9.49988 134.78 12.0649L136.44 4.23894ZM151.346 8.94655C147.701 7.11279 142.557 5.53919 136.442 4.23934L134.779 12.0645C140.631 13.3086 145.004 14.7109 147.751 16.0931L151.346 8.94655ZM157.562 15.9758C157.562 14.7681 157.11 13.8 156.714 13.1704C156.303 12.5149 155.788 11.9615 155.281 11.5033C154.265 10.5872 152.921 9.73261 151.336 8.94117L147.762 16.0985C148.964 16.699 149.626 17.1764 149.921 17.4423C150.068 17.5751 150.034 17.5751 149.939 17.4244C149.861 17.2996 149.562 16.7875 149.562 15.9758H157.562ZM151.348 23.0041C152.916 22.2144 154.253 21.363 155.265 20.4544C155.77 20.0003 156.286 19.4506 156.7 18.7991C157.095 18.1765 157.562 17.2009 157.562 15.9758H149.562C149.562 15.1466 149.872 14.627 149.947 14.5091C150.04 14.3624 150.071 14.3662 149.918 14.5031C149.614 14.7765 148.945 15.257 147.749 15.8593L151.348 23.0041ZM136.442 27.7122C142.557 26.4124 147.701 24.8388 151.346 23.005L147.751 15.8584C145.004 17.2406 140.631 18.6429 134.779 19.887L136.442 27.7122Z" fill="#524031" mask="url(#path-4-outside-1_1123_1049)"/>
<path d="M36 22.501C36 23.4859 37.3838 24.4612 40.0724 25.3711C42.7611 26.2811 46.7018 27.1078 51.6698 27.8043C56.6377 28.5007 62.5355 29.0532 69.0264 29.4301C75.5174 29.807 82.4743 30.001 89.5 30.001C96.5257 30.001 103.483 29.807 109.974 29.4301C116.464 29.0532 122.362 28.5007 127.33 27.8043C132.298 27.1078 136.239 26.2811 138.928 25.3711C141.616 24.4612 143 23.4859 143 22.501C143 20.5119 137.363 18.6042 127.33 17.1977C117.297 15.7912 103.689 15.001 89.5 15.001C75.3109 15.001 61.703 15.7912 51.6698 17.1977C41.6366 18.6042 36 20.5119 36 22.501Z" fill="#2B1F20"/>
<path d="M88.6706 32.32C74.1795 32.32 60.5777 31.528 50.5084 30.16C39.5981 28.672 33.7344 26.8001 33.7344 23.8001C33.7344 20.8002 39.5981 18.9282 50.5084 17.4402C60.5777 16.0723 74.1795 15.2803 88.6706 15.2803C103.162 15.2803 116.763 16.0723 126.833 17.4402C137.743 18.9282 143.607 20.8002 143.607 23.8001C143.607 26.8001 137.743 28.672 126.833 30.16C116.763 31.528 103.162 32.32 88.6706 32.32ZM88.6706 29.92C103.065 29.92 116.547 29.152 126.496 27.784C131.327 27.1361 135.196 26.3441 137.815 25.5041C139.089 25.0961 140.05 24.6881 140.651 24.2801C140.915 24.1121 141.083 23.9681 141.156 23.8481C141.204 23.8481 141.204 23.8481 141.156 23.8001C141.059 23.6801 140.891 23.5361 140.651 23.3681C140.05 22.9601 139.089 22.5521 137.815 22.1441C135.196 21.3042 131.351 20.5362 126.496 19.8642C116.547 18.5202 103.065 17.7282 88.6706 17.7282C74.2757 17.7282 60.7939 18.4962 50.8449 19.8642C46.0145 20.5122 42.1454 21.3042 39.526 22.1441C38.2523 22.5521 37.2911 22.9601 36.6903 23.3681C36.4259 23.5361 36.2577 23.6801 36.1856 23.8001C36.1375 23.8001 36.1375 23.8001 36.1856 23.8481C36.2817 23.9681 36.4499 24.1121 36.6903 24.2801C37.2911 24.6881 38.2523 25.0961 39.526 25.5041C42.1454 26.3441 45.9905 27.1121 50.8449 27.784C60.7939 29.152 74.2757 29.92 88.6706 29.92Z" fill="#524031"/>
<ellipse cx="5.52547" cy="9.28892" rx="5.52547" ry="9.28892" transform="matrix(-0.998941 -0.046012 0.0540585 0.998538 133.1 33.374)" fill="black"/>
<ellipse cx="11.1138" cy="13.2384" rx="11.1138" ry="13.2384" transform="matrix(-0.0540585 -0.998538 -0.998941 -0.046012 129.529 64.4697)" fill="#9B7C62"/>
<ellipse cx="5.52547" cy="9.28892" rx="5.52547" ry="9.28892" transform="matrix(-0.998941 -0.046012 0.0540585 0.998538 101.039 32.5088)" fill="black"/>
<path d="M114.297 71.7766L128.898 67.5174L129.31 68.9305L118.791 80.1763L105.053 82.1393L93.042 79.5097L82.1298 68.3822L83.7782 61.7683L98.1837 70.8546L114.297 71.7766Z" fill="white" stroke="black" stroke-width="2" stroke-linecap="round"/>
<path d="M132.723 64.8674L128.58 66.9868C112.316 75.3078 92.4941 71.7154 80.1844 58.2155V58.2155" stroke="black" stroke-width="5" stroke-linecap="round"/>
<path d="M132.394 65.4762V65.4762C122.333 90.6172 85.6835 87.0777 80.6197 60.4761L80.1893 58.2154" stroke="black" stroke-width="5" stroke-linecap="round"/>
</svg>
