<svg width="65" height="62" viewBox="0 0 65 62" fill="none" xmlns="http://www.w3.org/2000/svg">
<path d="M40.1264 39.0984C39.2632 35.6444 37.6967 32.1484 35.4165 28.8807C34.1107 27.0039 32.6085 25.2726 30.9357 23.7165L40.1264 39.0984ZM40.1264 39.0984C40.0427 39.1925 39.9665 39.2766 39.8988 39.3503L40.2671 39.6885L40.7547 39.5778C40.7286 39.4629 40.7017 39.3479 40.6741 39.2329C42.1429 37.5466 45.3169 33.4625 46.5723 28.4119L40.1264 39.0984ZM10.2129 22.8015L10.2125 22.8018C9.96572 22.9751 9.74466 23.274 9.60836 23.6292C9.47172 23.9852 9.44049 24.3445 9.50941 24.6196L9.51453 24.64L9.51784 24.6604L9.51785 24.6604L9.51788 24.6606L9.51791 24.6608L9.51797 24.6612L9.51885 24.6663L9.52321 24.691C9.52732 24.7137 9.53387 24.7488 9.54321 24.7955C9.56189 24.8888 9.59169 25.0284 9.6353 25.2081C9.72254 25.5677 9.86487 26.087 10.0836 26.7166C10.5215 27.9768 11.2633 29.6726 12.4774 31.4117L12.4775 31.4119C13.7068 33.1743 15.6056 34.6143 17.7692 36.2551C17.984 36.4179 18.2014 36.5828 18.421 36.7501C20.8257 38.5826 23.4398 40.6788 25.529 43.6733C27.6164 46.6645 28.8065 50.0134 29.4755 52.6015C29.8106 53.898 30.0164 55.0095 30.1386 55.7984C30.1997 56.193 30.24 56.5073 30.265 56.7241C30.2776 56.8325 30.2863 56.9166 30.292 56.9742C30.2939 56.9934 30.2955 57.0097 30.2967 57.023C30.2973 57.0296 30.2978 57.0354 30.2983 57.0405L30.2993 57.0519C30.3402 57.3507 30.4574 57.4397 30.507 57.4617C30.5564 57.4837 30.701 57.5113 30.951 57.3357L30.9513 57.3355L31.3552 57.0521L10.2129 22.8015ZM10.2129 22.8015C10.4658 22.6236 10.6173 22.648 10.6745 22.6728C10.7314 22.6974 10.8491 22.7891 10.8958 23.0784M10.2129 22.8015L10.8958 23.0784M10.8958 23.0784L10.8973 23.1014C10.8996 23.1319 10.9032 23.1754 10.9087 23.2309C10.9197 23.3419 10.9386 23.5013 10.9701 23.7022C11.0332 24.1041 11.1473 24.6731 11.3521 25.3553C11.7616 26.7195 12.5349 28.5405 13.9911 30.3805C15.7601 32.6177 18.1131 34.5434 20.3863 36.4038C20.4947 36.4925 20.6029 36.5811 20.7109 36.6696C23.1057 38.6314 25.3729 40.5311 26.8938 42.7094C28.4188 44.8954 29.6959 48.015 30.5965 50.6191C31.0447 51.9152 31.3959 53.0725 31.635 53.9056C31.7546 54.3219 31.8459 54.6569 31.9073 54.8873C31.938 55.0025 31.9612 55.0915 31.9766 55.1514L31.9939 55.2191L31.9982 55.236L31.9992 55.24L31.9994 55.2409L31.9995 55.241L31.9993 55.2411L32.0028 55.2537C32.0833 55.5436 32.0604 55.9007 31.9355 56.2455C31.8108 56.5901 31.5996 56.8795 31.356 57.0515L10.8958 23.0784ZM11.8928 23.0003L11.893 23.0044L11.8947 23.0282C11.8963 23.0504 11.8991 23.0852 11.9038 23.1319C11.9131 23.2253 11.9296 23.3659 11.958 23.5471C12.015 23.9096 12.1197 24.434 12.3099 25.0678C12.6905 26.3357 13.412 28.0374 14.7752 29.7599L14.7754 29.7601C16.4752 31.9098 18.7511 33.7729 21.0503 35.655C21.1484 35.7353 21.2465 35.8156 21.3446 35.896C23.7201 37.842 26.1004 39.8261 27.7138 42.1371L27.7139 42.1372C29.3217 44.4419 30.6349 47.6707 31.5415 50.2923C31.9969 51.6089 32.3534 52.7838 32.5962 53.6297C32.7177 54.0528 32.8108 54.394 32.8736 54.6299C32.905 54.7478 32.9289 54.8395 32.945 54.902L32.9633 54.9734L32.968 54.992L32.9681 54.9927C33.1122 55.5178 33.0564 56.0873 32.8758 56.586C32.6945 57.0867 32.3719 57.5589 31.9312 57.8695L31.9304 57.8701L31.5259 58.1539C31.5258 58.154 31.5257 58.154 31.5257 58.1541C31.0911 58.4593 30.5717 58.5846 30.1011 58.3756C29.6313 58.167 29.3746 57.698 29.3063 57.1708L29.3048 57.1592L11.8928 23.0003ZM11.8928 23.0003L11.8928 23L11.8928 22.9999L11.8928 22.9998L11.8927 22.9995L11.8916 22.9763L11.8881 22.9524C11.8109 22.4244 11.5445 21.9598 11.0719 21.7551C10.5986 21.5501 10.077 21.6745 9.63777 21.9834C9.1953 22.2942 8.86633 22.7717 8.67475 23.2709C8.48589 23.763 8.41086 24.3278 8.5346 24.8431L8.53917 24.8689C8.54435 24.8976 8.55206 24.9388 8.56265 24.9917C8.58383 25.0975 8.61653 25.2504 8.6635 25.4439C8.75741 25.831 8.90854 26.3815 9.13902 27.0448C9.59961 28.3705 10.3793 30.1531 11.6573 31.9839C12.9826 33.884 15.0136 35.4225 17.1451 37.0371C17.3675 37.2056 17.5909 37.3749 17.8148 37.5455C20.2116 39.372 22.7158 41.3887 24.7089 44.2455L24.7089 44.2455C26.7037 47.1041 27.8552 50.3288 28.5073 52.8518C28.8327 54.1109 29.0323 55.1893 29.1504 55.9515C29.2094 56.3324 29.2479 56.6339 29.2717 56.839C29.2835 56.9416 29.2917 57.02 29.2968 57.0721L29.3023 57.1303L29.3036 57.1442L29.3038 57.1472L29.3038 57.1476L29.3039 57.1477L11.8928 23.0003ZM40.4154 44.8086L40.4248 45.1854L40.7896 45.2801L41.0482 45.3473L41.0526 45.3484C45.3268 46.418 49.7554 44.9397 53.4462 41.7802C57.1379 38.62 60.1287 33.7529 61.5742 27.9354C62.9291 22.4825 62.4911 17.0612 60.7964 12.6169C59.1387 8.26964 56.2607 4.81707 52.6365 3.2259L52.6416 3.20651C52.3025 3.08725 51.9558 2.98181 51.5999 2.8937C47.3251 1.82442 42.896 3.30269 39.205 6.462C35.5129 9.62224 32.522 14.4894 31.0773 20.3069L31.0773 20.307C30.799 21.4287 30.5871 22.5447 30.44 23.6506L30.406 23.9066L30.5951 24.0826C32.2418 25.6144 33.7206 27.3187 35.0061 29.1662L35.0065 29.1668C37.3807 32.5693 38.9665 36.219 39.7795 39.7992L39.9906 40.7289L40.6354 40.0267C41.8288 38.7269 45.6374 34.2457 47.0575 28.5325L47.0575 28.5325C47.9077 25.111 47.7398 21.8665 47.5147 18.9462C47.4941 18.6797 47.4732 18.4164 47.4525 18.1564C47.2439 15.5323 47.0613 13.2362 47.5596 11.2321L47.5596 11.2318C48.051 9.25136 48.8134 7.65862 49.4524 6.56223C49.7716 6.01443 50.0593 5.59184 50.2655 5.30818C50.3685 5.16638 50.4511 5.05943 50.507 4.98904C50.535 4.95385 50.5562 4.9278 50.57 4.91113L50.585 4.89317L50.588 4.88951L50.5881 4.88943L50.5883 4.88925L50.5884 4.88912L50.5885 4.88902L50.6034 4.87161L50.617 4.85243C50.7841 4.61604 51.0621 4.41199 51.3982 4.28334C51.6398 4.1909 51.8918 4.14501 52.1246 4.14658C52.2772 4.27387 52.4445 4.44074 52.5614 4.60917C52.6458 4.73066 52.6794 4.81812 52.6872 4.86636C52.6879 4.87013 52.6883 4.87332 52.6885 4.87598C52.6674 4.89667 52.6381 4.9258 52.6016 4.96331C52.5264 5.04075 52.4205 5.154 52.2922 5.30257C52.0356 5.5996 51.6888 6.03849 51.3175 6.61536C50.5751 7.76899 49.7331 9.47791 49.3243 11.7084C48.8278 14.4162 48.95 17.3593 49.0678 20.1982C49.0735 20.3347 49.0791 20.4708 49.0847 20.6067C49.2075 23.6016 49.2917 26.4577 48.6766 28.9372C48.0579 31.4261 46.5903 34.3043 45.2561 36.5846C44.5923 37.7192 43.9676 38.6955 43.5091 39.3878C43.2799 39.7339 43.0925 40.0087 42.9626 40.1965C42.8977 40.2905 42.8472 40.3626 42.8131 40.411L42.7745 40.4656L42.7649 40.4791L42.7626 40.4823L42.7621 40.483L42.7621 40.4831L42.7578 40.489L42.7538 40.495C42.5827 40.7494 42.2923 40.9688 41.9462 41.1019C41.6001 41.2349 41.2417 41.265 40.9539 41.1933C40.9535 41.1932 40.9532 41.1931 40.9528 41.193L40.7572 41.1432L40.0259 40.9569L40.1395 41.703C40.2992 42.7513 40.3901 43.79 40.4154 44.8086ZM41.4028 44.4046C41.3741 43.6871 41.3142 42.9613 41.2224 42.2305C41.5916 42.2388 41.9649 42.1661 42.3051 42.0353C42.8027 41.844 43.2726 41.512 43.5793 41.0595L43.5899 41.0446L43.6308 40.9867C43.6665 40.936 43.7186 40.8615 43.7852 40.7652C43.9185 40.5724 44.1097 40.2921 44.3429 39.94C44.8091 39.236 45.444 38.2437 46.1192 37.0896C47.4633 34.7924 48.9923 31.8124 49.6471 29.1784L49.6472 29.1782C50.3025 26.5362 50.2056 23.5343 50.0839 20.5657C50.0788 20.4431 50.0738 20.3206 50.0687 20.1981C49.9497 17.3237 49.8322 14.4831 50.3079 11.8887L50.3079 11.8887C50.6888 9.8101 51.4725 8.22233 52.1584 7.15653C52.5014 6.62368 52.8193 6.22218 53.049 5.95623C53.1638 5.82332 53.2564 5.72443 53.3189 5.66012C53.3501 5.62797 53.3738 5.60447 53.389 5.5897L53.4051 5.57411L53.4077 5.57166L53.4079 5.57143L53.4081 5.57125L53.4084 5.57104L53.4263 5.55441L53.443 5.53537C53.6105 5.34498 53.682 5.12728 53.6883 4.91451C56.3434 6.58355 58.5109 9.42996 59.862 12.9731C61.4831 17.2243 61.91 22.4371 60.6037 27.6943C59.2025 33.3336 56.3119 38.0107 52.7959 41.0206C49.3114 44.0034 45.2491 45.3243 41.4028 44.4046ZM40 47.5L39.8909 48.488C40.0116 48.5149 40.1324 48.5403 40.2533 48.564C39.6065 52.9437 37.5206 56.6173 34.1371 58.9939L34.137 58.994C30.1649 61.7857 25.0358 62.1812 19.9155 60.4986C14.7949 58.8158 9.71563 55.0608 5.91517 49.6147C2.11551 44.1679 0.336128 38.0925 0.511841 32.6866C0.687554 27.2807 2.81292 22.578 6.78606 19.7876L6.78629 19.7874C12.5784 15.7146 20.8629 16.7431 27.9257 21.8808L28.564 22.3451L28.711 21.5696C28.8219 20.9849 28.9507 20.3969 29.0962 19.8084C30.6993 13.357 34.101 8.02447 38.2813 4.61158C42.4616 1.1987 47.3917 -0.276784 52.0957 0.900118C56.7999 2.0786 60.463 5.70492 62.5571 10.6882C64.6513 15.6716 65.1593 21.9825 63.5555 28.4333L63.5555 28.4334C61.9744 34.8007 58.445 40.1074 54.136 43.5512C50.2088 46.6898 45.6651 48.2604 41.366 47.7294L41.3924 47.5H40.8316H40Z" fill="black" stroke="white"/>
</svg>
