<svg width="232" height="365" viewBox="0 0 232 365" fill="none" xmlns="http://www.w3.org/2000/svg">
<g filter="url(#filter0_d_1881_796)">
<path d="M4.27149 350.5V292.5C31.6048 298.167 56.7715 301 79.7715 301C104.105 301 123.105 297.333 136.771 290C150.438 282.333 157.271 269 157.271 250C157.271 231 150.105 217.833 135.771 210.5C121.438 202.833 99.4382 199 69.7715 199H43.2715V147.5H69.2715C95.9382 147.5 116.271 143.667 130.271 136C144.271 128.333 151.271 115.833 151.271 98.5C151.271 82.8333 145.771 71.6667 134.771 65C123.771 58.3333 107.605 55 86.2715 55C75.6048 55 63.9382 56 51.2715 58C38.9382 59.6667 27.9382 62 18.2715 65V9.99999C26.9382 7.33332 38.2715 4.99999 52.2715 2.99999C66.6048 0.999979 80.6048 -2.7895e-05 94.2715 -2.7895e-05C134.605 -2.7895e-05 165.271 7.33331 186.271 22C207.605 36.6666 218.271 60.6666 218.271 94C218.271 132.333 199.271 157.667 161.271 170V173C182.938 177.333 199.271 186.667 210.271 201C221.605 215 227.271 233 227.271 255C227.271 323 179.271 357 83.2715 357C52.6048 357 26.2715 354.833 4.27149 350.5Z" fill="#F70017"/>
<path d="M4.27149 350.5H3.77149V350.911L4.17486 350.991L4.27149 350.5ZM4.27149 292.5L4.37299 292.01L3.77149 291.886V292.5H4.27149ZM136.771 290L137.008 290.441L137.016 290.436L136.771 290ZM135.771 210.5L135.536 210.941L135.544 210.945L135.771 210.5ZM43.2715 199H42.7715V199.5H43.2715V199ZM43.2715 147.5V147H42.7715V147.5H43.2715ZM134.771 65L134.512 65.4276L134.512 65.4276L134.771 65ZM51.2715 58L51.3385 58.4956L51.3495 58.4939L51.2715 58ZM18.2715 65H17.7715V65.6787L18.4197 65.4775L18.2715 65ZM18.2715 9.99999L18.1244 9.5221L17.7715 9.63071V9.99999H18.2715ZM52.2715 2.99999L52.2024 2.50479L52.2008 2.50502L52.2715 2.99999ZM186.271 22L185.985 22.4099L185.988 22.412L186.271 22ZM161.271 170L161.117 169.524L160.771 169.637V170H161.271ZM161.271 173H160.771V173.41L161.173 173.49L161.271 173ZM210.271 201L209.875 201.305L209.883 201.315L210.271 201ZM4.77149 350.5V292.5H3.77149V350.5H4.77149ZM4.16999 292.99C31.5299 298.662 56.7311 301.5 79.7715 301.5V300.5C56.8119 300.5 31.6797 297.672 4.37299 292.01L4.16999 292.99ZM79.7715 301.5C104.145 301.5 123.239 297.829 137.008 290.441L136.535 289.559C122.971 296.838 104.065 300.5 79.7715 300.5V301.5ZM137.016 290.436C150.877 282.661 157.771 269.135 157.771 250H156.771C156.771 268.865 150 282.006 136.527 289.564L137.016 290.436ZM157.771 250C157.771 240.438 155.968 232.31 152.336 225.636C148.701 218.958 143.249 213.764 135.999 210.055L135.544 210.945C142.628 214.57 147.926 219.626 151.457 226.114C154.991 232.607 156.771 240.562 156.771 250H157.771ZM136.007 210.059C121.564 202.333 99.4629 198.5 69.7715 198.5V199.5C99.4134 199.5 121.313 203.333 135.536 210.941L136.007 210.059ZM69.7715 198.5H43.2715V199.5H69.7715V198.5ZM43.7715 199V147.5H42.7715V199H43.7715ZM43.2715 148H69.2715V147H43.2715V148ZM69.2715 148C95.9724 148 116.404 144.164 130.512 136.439L130.031 135.561C116.139 143.169 95.9039 147 69.2715 147V148ZM130.512 136.439C137.584 132.565 142.907 127.46 146.458 121.119C150.007 114.78 151.771 107.234 151.771 98.5H150.771C150.771 107.099 149.035 114.47 145.585 120.631C142.136 126.79 136.959 131.768 130.031 135.561L130.512 136.439ZM151.771 98.5C151.771 82.7029 146.215 71.3505 135.031 64.5724L134.512 65.4276C145.328 71.9828 150.771 82.9638 150.771 98.5H151.771ZM135.031 64.5724C123.917 57.8367 107.642 54.5 86.2715 54.5V55.5C107.567 55.5 123.626 58.83 134.512 65.4276L135.031 64.5724ZM86.2715 54.5C75.5741 54.5 63.881 55.5028 51.1935 57.5061L51.3495 58.4939C63.9953 56.4972 75.6355 55.5 86.2715 55.5V54.5ZM51.2045 57.5045C38.8497 59.1741 27.8217 61.5126 18.1233 64.5225L18.4197 65.4775C28.0546 62.4874 39.0266 60.1593 51.3384 58.4955L51.2045 57.5045ZM18.7715 65V9.99999H17.7715V65H18.7715ZM18.4185 10.4779C27.0505 7.82189 38.3555 5.49307 52.3422 3.49497L52.2008 2.50502C38.1875 4.50691 26.8258 6.84475 18.1244 9.5221L18.4185 10.4779ZM52.3406 3.4952C66.6524 1.49819 80.6293 0.499972 94.2715 0.499972V-0.500028C80.5804 -0.500028 66.5573 0.501768 52.2024 2.50479L52.3406 3.4952ZM94.2715 0.499972C134.557 0.499972 165.105 7.82678 185.985 22.4099L186.558 21.5901C165.438 6.83985 134.653 -0.500028 94.2715 -0.500028V0.499972ZM185.988 22.412C207.147 36.959 217.771 60.7785 217.771 94H218.771C218.771 60.5548 208.062 36.3743 186.555 21.588L185.988 22.412ZM217.771 94C217.771 113.082 213.044 128.887 203.621 141.45C194.198 154.015 180.045 163.381 161.117 169.524L161.426 170.476C180.498 164.285 194.845 154.818 204.421 142.05C213.999 129.28 218.771 113.251 218.771 94H217.771ZM160.771 170V173H161.771V170H160.771ZM161.173 173.49C182.749 177.805 198.964 187.087 209.875 201.304L210.668 200.696C199.579 186.246 183.127 176.861 161.37 172.51L161.173 173.49ZM209.883 201.315C221.129 215.207 226.771 233.088 226.771 255H227.771C227.771 232.912 222.08 214.793 210.66 200.685L209.883 201.315ZM226.771 255C226.771 288.867 214.828 314.201 190.982 331.092C167.105 348.005 131.228 356.5 83.2715 356.5V357.5C131.315 357.5 167.438 348.995 191.56 331.908C215.715 314.799 227.771 289.133 227.771 255H226.771ZM83.2715 356.5C52.6263 356.5 26.3271 354.335 4.36811 350.009L4.17486 350.991C26.2159 355.332 52.5833 357.5 83.2715 357.5V356.5Z" fill="white"/>
</g>
<defs>
<filter id="filter0_d_1881_796" x="0.271484" y="0" width="231" height="365" filterUnits="userSpaceOnUse" color-interpolation-filters="sRGB">
<feFlood flood-opacity="0" result="BackgroundImageFix"/>
<feColorMatrix in="SourceAlpha" type="matrix" values="0 0 0 0 0 0 0 0 0 0 0 0 0 0 0 0 0 0 127 0" result="hardAlpha"/>
<feOffset dy="4"/>
<feGaussianBlur stdDeviation="2"/>
<feComposite in2="hardAlpha" operator="out"/>
<feColorMatrix type="matrix" values="0 0 0 0 0 0 0 0 0 0 0 0 0 0 0 0 0 0 0.25 0"/>
<feBlend mode="normal" in2="BackgroundImageFix" result="effect1_dropShadow_1881_796"/>
<feBlend mode="normal" in="SourceGraphic" in2="effect1_dropShadow_1881_796" result="shape"/>
</filter>
</defs>
</svg>
