<svg width="26" height="23" viewBox="0 0 26 23" fill="none" xmlns="http://www.w3.org/2000/svg">
<path d="M6.4 20.44C6.37333 20.5467 6.30667 20.5867 6.2 20.56C6.09333 20.5067 6.05333 20.4267 6.08 20.32C6.21333 18.8533 6.34667 17.5067 6.48 16.28C6.61333 15.0267 6.73333 13.8 6.84 12.6C6.01333 12.6267 5.18667 12.6667 4.36 12.72C3.53333 12.7733 2.72 12.8267 1.92 12.88C1.78667 12.88 1.58667 12.8 1.32 12.64C1.08 12.4533 0.88 12.28 0.72 12.12C0.586667 11.9333 0.586667 11.84 0.72 11.84C3.04 11.68 5.10667 11.6 6.92 11.6C7 10.5867 7.05333 9.57333 7.08 8.56C7.13333 7.52 7.14667 6.42667 7.12 5.28C7.12 5.2 7.22667 5.08 7.44 4.92C7.68 4.76 7.90667 4.64 8.12 4.56C8.36 4.45333 8.48 4.44 8.48 4.52C8.50667 5.37333 8.46667 6.44 8.36 7.72C8.28 8.97333 8.16 10.2667 8 11.6C9.49333 11.6 10.7733 11.6533 11.84 11.76C12.9333 11.84 13.8133 11.9333 14.48 12.04C14.6133 12.0667 14.68 12.12 14.68 12.2C14.68 12.3333 14.5333 12.4 14.24 12.4C13.3333 12.4 12.3333 12.4133 11.24 12.44C10.1733 12.4667 9.05333 12.5067 7.88 12.56C7.66667 14.2667 7.41333 15.8667 7.12 17.36C6.85333 18.8267 6.61333 19.8533 6.4 20.44ZM16.8306 22.76C16.724 22.7867 16.5906 22.6933 16.4306 22.48C16.2973 22.2933 16.1906 22.08 16.1106 21.84C16.0573 21.6267 16.084 21.5067 16.1906 21.48C16.884 21.2133 17.564 20.9333 18.2306 20.64C18.8973 20.3467 19.564 20.0667 20.2306 19.8C20.124 19.3733 20.044 18.9333 19.9906 18.48C19.9373 18.0267 19.9106 17.56 19.9106 17.08C19.9106 16.04 19.9906 14.9867 20.1506 13.92C20.3106 12.8267 20.4973 11.7867 20.7106 10.8C20.9506 9.78667 21.1373 8.90667 21.2706 8.16C21.404 7.6 21.524 7.04 21.6306 6.48C21.7373 5.89333 21.844 5.30667 21.9506 4.72C21.9773 4.64 21.9906 4.56 21.9906 4.48C21.9906 4.4 22.004 4.33333 22.0306 4.28C21.8706 4.41333 21.6173 4.70667 21.2706 5.16C20.924 5.61333 20.5773 6.16 20.2306 6.8C20.1773 6.90667 20.0306 7.18667 19.7906 7.64C19.5506 8.06667 19.3106 8.48 19.0706 8.88C18.8306 9.28 18.6573 9.50667 18.5506 9.56C18.4973 9.58667 18.444 9.6 18.3906 9.6C18.2573 9.6 18.1906 9.52 18.1906 9.36C18.1906 9.30667 18.204 9.24 18.2306 9.16C18.2573 9.08 18.284 9.02667 18.3106 9C18.8973 7.85333 19.4306 6.78667 19.9106 5.8C20.4173 4.81333 20.9906 3.70667 21.6306 2.48C21.764 2.24 21.9106 1.93333 22.0706 1.56C22.2573 1.16 22.4706 0.799999 22.7106 0.48C22.9773 0.159999 23.244 -1.43051e-06 23.5106 -1.43051e-06C23.7506 -1.43051e-06 23.9373 0.119999 24.0706 0.359999C24.204 0.599999 24.2706 0.839999 24.2706 1.08C24.2706 1.16 24.244 1.28 24.1906 1.44C23.4973 2.96 22.9373 4.54667 22.5106 6.2C22.084 7.85333 21.764 9.49333 21.5506 11.12C21.364 12.72 21.2706 14.2 21.2706 15.56C21.2706 16.2533 21.284 16.9067 21.3106 17.52C21.364 18.1067 21.444 18.6533 21.5506 19.16V19.24C22.2173 18.9733 22.884 18.72 23.5506 18.48C24.244 18.24 24.924 18.0267 25.5906 17.84H25.7106C25.844 17.84 25.9106 17.9067 25.9106 18.04C25.9373 18.1733 25.884 18.2667 25.7506 18.32C25.1106 18.5067 24.4706 18.76 23.8306 19.08C23.1906 19.3733 22.5373 19.7067 21.8706 20.08C21.9773 20.2667 22.044 20.44 22.0706 20.6C22.124 20.7333 22.084 20.8267 21.9506 20.88C21.7106 20.96 21.4973 21 21.3106 21C21.044 21 20.8306 20.92 20.6706 20.76C20.004 21.1333 19.3506 21.4933 18.7106 21.84C18.0706 22.2133 17.444 22.52 16.8306 22.76Z" fill="#F70017"/>
<path d="M6.4 20.44L6.16505 20.3546L6.16061 20.3668L6.15746 20.3794L6.4 20.44ZM6.2 20.56L6.0882 20.7836L6.11274 20.7959L6.13937 20.8025L6.2 20.56ZM6.08 20.32L6.32254 20.3806L6.32722 20.3619L6.32897 20.3426L6.08 20.32ZM6.48 16.28L6.72854 16.307L6.7286 16.3064L6.48 16.28ZM6.84 12.6L7.08902 12.6221L7.11401 12.341L6.83194 12.3501L6.84 12.6ZM4.36 12.72L4.3439 12.4705L4.3439 12.4705L4.36 12.72ZM1.92 12.88V13.13H1.92832L1.93663 13.1294L1.92 12.88ZM1.32 12.64L1.16651 12.8373L1.17843 12.8466L1.19138 12.8544L1.32 12.64ZM0.72 12.12L0.516567 12.2653L0.528593 12.2821L0.543223 12.2968L0.72 12.12ZM0.72 11.84V12.09H0.728611L0.737201 12.0894L0.72 11.84ZM6.92 11.6V11.85H7.15104L7.16922 11.6197L6.92 11.6ZM7.08 8.56L6.83025 8.54719L6.83009 8.55342L7.08 8.56ZM7.12 5.28H6.86993L6.87007 5.28581L7.12 5.28ZM7.44 4.92L7.30111 4.71167L7.29 4.72L7.44 4.92ZM8.12 4.56L8.20778 4.79408L8.21474 4.79147L8.22154 4.78845L8.12 4.56ZM8.48 4.52H8.22988L8.23012 4.52781L8.48 4.52ZM8.36 7.72L8.11082 7.69923L8.11051 7.70407L8.36 7.72ZM8 11.6L7.75178 11.5702L7.71821 11.85H8V11.6ZM11.84 11.76L11.8151 12.0088L11.8218 12.0093L11.84 11.76ZM14.48 12.04L14.5291 11.7947L14.5195 11.7931L14.48 12.04ZM11.24 12.44L11.2339 12.1901L11.2338 12.1901L11.24 12.44ZM7.88 12.56L7.86865 12.3103L7.65808 12.3198L7.63193 12.529L7.88 12.56ZM7.12 17.36L6.87466 17.3118L6.87403 17.3153L7.12 17.36ZM6.15746 20.3794C6.15348 20.3953 6.1578 20.3618 6.20138 20.3356C6.24495 20.3095 6.27658 20.3215 6.26063 20.3175L6.13937 20.8025C6.23009 20.8252 6.34838 20.8305 6.45862 20.7644C6.56887 20.6982 6.61986 20.5914 6.64254 20.5006L6.15746 20.3794ZM6.3118 20.3364C6.29084 20.3259 6.30248 20.3259 6.31361 20.3482C6.31895 20.3589 6.3213 20.3693 6.32187 20.3772C6.32238 20.3843 6.32118 20.386 6.32254 20.3806L5.83746 20.2594C5.8131 20.3568 5.81397 20.467 5.86639 20.5718C5.91752 20.6741 6.0025 20.7408 6.0882 20.7836L6.3118 20.3364ZM6.32897 20.3426C6.4622 18.8772 6.59539 17.532 6.72854 16.307L6.23146 16.253C6.09795 17.4814 5.96447 18.8295 5.83103 20.2974L6.32897 20.3426ZM6.7286 16.3064C6.86208 15.0517 6.98222 13.8236 7.08902 12.6221L6.59098 12.5779C6.48445 13.7764 6.36459 15.0016 6.2314 16.2536L6.7286 16.3064ZM6.83194 12.3501C6.00259 12.3769 5.17324 12.417 4.3439 12.4705L4.3761 12.9695C5.20009 12.9163 6.02408 12.8764 6.84806 12.8499L6.83194 12.3501ZM4.3439 12.4705C3.51707 12.5239 2.70355 12.5772 1.90337 12.6306L1.93663 13.1294C2.73645 13.0761 3.5496 13.0228 4.3761 12.9695L4.3439 12.4705ZM1.92 12.63C1.8987 12.63 1.84927 12.6224 1.76285 12.5879C1.67933 12.5545 1.57507 12.5015 1.44862 12.4256L1.19138 12.8544C1.33159 12.9385 1.46067 13.0055 1.57715 13.0521C1.69073 13.0976 1.80797 13.13 1.92 13.13V12.63ZM1.47349 12.4427C1.23908 12.2604 1.04745 12.0939 0.896777 11.9432L0.543223 12.2968C0.712551 12.4661 0.920916 12.6463 1.16651 12.8373L1.47349 12.4427ZM0.923433 11.9747C0.894988 11.9349 0.878864 11.9071 0.870715 11.89C0.860778 11.8691 0.87 11.8794 0.87 11.91C0.87 11.9281 0.866714 11.9559 0.851965 11.9869C0.83662 12.0191 0.813608 12.0446 0.788366 12.0623C0.743865 12.0935 0.708166 12.09 0.72 12.09V11.59C0.665168 11.59 0.579468 11.5982 0.501634 11.6527C0.407548 11.7186 0.37 11.8189 0.37 11.91C0.37 11.9873 0.395889 12.0559 0.419285 12.105C0.44447 12.1579 0.478346 12.2118 0.516567 12.2653L0.923433 11.9747ZM0.737201 12.0894C3.05298 11.9297 5.11374 11.85 6.92 11.85V11.35C5.09959 11.35 3.02702 11.4303 0.7028 11.5906L0.737201 12.0894ZM7.16922 11.6197C7.24957 10.602 7.30313 9.58429 7.32991 8.56658L6.83009 8.55342C6.80354 9.56237 6.75043 10.5713 6.67078 11.5803L7.16922 11.6197ZM7.32967 8.5728C7.38335 7.52602 7.39673 6.42645 7.36993 5.27419L6.87007 5.28581C6.8966 6.42689 6.88331 7.51398 6.83033 8.5472L7.32967 8.5728ZM7.37 5.28C7.37 5.31456 7.359 5.33312 7.36059 5.33015C7.36167 5.32812 7.36834 5.31692 7.38685 5.29609C7.4242 5.25408 7.48919 5.19561 7.59 5.12L7.29 4.72C7.17748 4.80439 7.08247 4.88592 7.01315 4.96391C6.95405 5.03039 6.87 5.14124 6.87 5.28H7.37ZM7.57868 5.12801C7.80676 4.97596 8.01635 4.86587 8.20778 4.79408L8.03222 4.32592C7.79698 4.41413 7.55324 4.54404 7.30132 4.71199L7.57868 5.12801ZM8.22154 4.78845C8.27675 4.76391 8.32145 4.74637 8.35656 4.73467C8.39317 4.72247 8.41208 4.71908 8.41761 4.71847C8.43062 4.71702 8.38953 4.72573 8.33609 4.69604C8.3044 4.67843 8.27394 4.65009 8.25343 4.61135C8.23394 4.57454 8.23 4.54086 8.23 4.52H8.73C8.73 4.42725 8.68789 4.3195 8.57891 4.25896C8.49547 4.21261 8.40938 4.21631 8.36239 4.22153C8.26122 4.23277 8.14101 4.27708 8.01847 4.33155L8.22154 4.78845ZM8.23012 4.52781C8.25638 5.36815 8.21709 6.42452 8.11086 7.69924L8.60914 7.74076C8.71624 6.45548 8.75695 5.37851 8.72988 4.51219L8.23012 4.52781ZM8.11051 7.70407C8.03082 8.95247 7.91127 10.2412 7.75178 11.5702L8.24822 11.6298C8.40873 10.2922 8.52918 8.99419 8.60949 7.73592L8.11051 7.70407ZM8 11.85C9.48798 11.85 10.7592 11.9032 11.8151 12.0088L11.8649 11.5112C10.7874 11.4035 9.49868 11.35 8 11.35V11.85ZM11.8218 12.0093C12.9118 12.0891 13.7838 12.1818 14.4405 12.2869L14.5195 11.7931C13.8428 11.6849 12.9549 11.5909 11.8582 11.5107L11.8218 12.0093ZM14.431 12.2851C14.453 12.2896 14.4669 12.294 14.4747 12.2971C14.4825 12.3003 14.4806 12.3006 14.4738 12.2952C14.4663 12.2892 14.4539 12.2769 14.4439 12.2568C14.4336 12.2362 14.43 12.2159 14.43 12.2H14.93C14.93 12.0784 14.8742 11.9752 14.7862 11.9048C14.7085 11.8426 14.6141 11.8119 14.529 11.7949L14.431 12.2851ZM14.43 12.2C14.43 12.1844 14.4354 12.1608 14.4509 12.1397C14.4644 12.1213 14.4756 12.1183 14.4665 12.1224C14.4571 12.1267 14.4352 12.1342 14.395 12.1403C14.3556 12.1463 14.3045 12.15 14.24 12.15V12.65C14.3978 12.65 14.5509 12.6333 14.6735 12.5776C14.7378 12.5484 14.804 12.5037 14.8541 12.4353C14.9063 12.3642 14.93 12.2823 14.93 12.2H14.43ZM14.24 12.15C13.3309 12.15 12.3289 12.1634 11.2339 12.1901L11.2461 12.6899C12.3378 12.6633 13.3357 12.65 14.24 12.65V12.15ZM11.2338 12.1901C10.1652 12.2168 9.04352 12.2569 7.86865 12.3103L7.89135 12.8097C9.06315 12.7565 10.1814 12.7165 11.2462 12.6899L11.2338 12.1901ZM7.63193 12.529C7.41923 14.2306 7.16677 15.8248 6.87469 17.3118L7.36531 17.4082C7.6599 15.9085 7.91411 14.3027 8.12807 12.591L7.63193 12.529ZM6.87403 17.3153C6.60739 18.7818 6.37042 19.7898 6.16505 20.3546L6.63495 20.5254C6.85625 19.9169 7.09928 18.8715 7.36597 17.4047L6.87403 17.3153ZM16.8306 22.76L16.8913 23.0025L16.9068 22.9986L16.9217 22.9928L16.8306 22.76ZM16.4306 22.48L16.2271 22.6253L16.2306 22.63L16.4306 22.48ZM16.1106 21.84L15.8681 21.9006L15.8704 21.9099L15.8735 21.9191L16.1106 21.84ZM16.1906 21.48L16.2513 21.7225L16.2661 21.7188L16.2804 21.7133L16.1906 21.48ZM18.2306 20.64L18.3313 20.8688L18.2306 20.64ZM20.2306 19.8L20.3235 20.0321L20.5261 19.9511L20.4732 19.7394L20.2306 19.8ZM19.9906 18.48L19.7423 18.5092L19.7423 18.5092L19.9906 18.48ZM20.1506 13.92L20.3979 13.9571L20.398 13.9562L20.1506 13.92ZM20.7106 10.8L20.4673 10.7424L20.4663 10.7472L20.7106 10.8ZM21.2706 8.16L21.0274 8.10209L21.0258 8.10903L21.0245 8.11605L21.2706 8.16ZM21.6306 6.48L21.8762 6.52678L21.8766 6.52472L21.6306 6.48ZM21.9506 4.72L21.7135 4.64094L21.7078 4.6578L21.7047 4.67528L21.9506 4.72ZM22.0306 4.28L22.2542 4.3918L21.8706 4.08794L22.0306 4.28ZM21.2706 5.16L21.072 5.00814L21.072 5.00814L21.2706 5.16ZM20.2306 6.8L20.0107 6.68086L20.007 6.6882L20.2306 6.8ZM19.7906 7.64L20.0086 7.7626L20.0116 7.75697L19.7906 7.64ZM19.0706 8.88L19.285 9.00862L19.285 9.00862L19.0706 8.88ZM18.5506 9.56L18.6624 9.78361L18.6624 9.78361L18.5506 9.56ZM18.2306 9.16L18.4678 9.23906L18.4678 9.23906L18.2306 9.16ZM18.3106 9L18.4874 9.17678L18.5152 9.14893L18.5332 9.11387L18.3106 9ZM19.9106 5.8L19.6882 5.68577L19.6858 5.69063L19.9106 5.8ZM21.6306 2.48L21.412 2.35855L21.409 2.36436L21.6306 2.48ZM22.0706 1.56L21.844 1.45422L21.8408 1.46152L22.0706 1.56ZM22.7106 0.48L22.5183 0.319743L22.5106 0.329999L22.7106 0.48ZM24.0706 0.359999L23.8521 0.481409L23.8521 0.48141L24.0706 0.359999ZM24.1906 1.44L24.4181 1.54375L24.4236 1.53166L24.4278 1.51906L24.1906 1.44ZM22.5106 6.2L22.7527 6.26247L22.7527 6.26247L22.5106 6.2ZM21.5506 11.12L21.3027 11.0875L21.3023 11.091L21.5506 11.12ZM21.3106 17.52L21.0606 17.5309L21.0617 17.5426L21.3106 17.52ZM21.5506 19.16H21.8006V19.134L21.7953 19.1085L21.5506 19.16ZM21.5506 19.24H21.3006V19.6093L21.6435 19.4721L21.5506 19.24ZM23.5506 18.48L23.4688 18.2437L23.4659 18.2448L23.5506 18.48ZM25.5906 17.84V17.59H25.5563L25.5232 17.5993L25.5906 17.84ZM25.9106 18.04H25.6606V18.0648L25.6655 18.089L25.9106 18.04ZM25.7506 18.32L25.8206 18.56L25.8322 18.5566L25.8435 18.5521L25.7506 18.32ZM23.8306 19.08L23.9348 19.3074L23.9424 19.3036L23.8306 19.08ZM21.8706 20.08L21.7485 19.8619L21.5285 19.9851L21.6536 20.204L21.8706 20.08ZM22.0706 20.6L21.824 20.6411L21.8285 20.6678L21.8385 20.6928L22.0706 20.6ZM21.9506 20.88L22.0297 21.1172L22.0367 21.1148L22.0435 21.1121L21.9506 20.88ZM20.6706 20.76L20.8474 20.5832L20.7136 20.4494L20.5485 20.5419L20.6706 20.76ZM18.7106 21.84L18.5915 21.6201L18.5847 21.6241L18.7106 21.84ZM16.77 22.5175C16.8152 22.5062 16.8303 22.5306 16.794 22.5052C16.7584 22.4803 16.7035 22.4272 16.6306 22.33L16.2306 22.63C16.3177 22.7461 16.4096 22.8464 16.5073 22.9148C16.6043 22.9827 16.7394 23.0405 16.8913 23.0025L16.77 22.5175ZM16.6341 22.3347C16.5166 22.1703 16.4207 21.9797 16.3478 21.7609L15.8735 21.9191C15.9605 22.1803 16.078 22.4164 16.2272 22.6253L16.6341 22.3347ZM16.3532 21.7794C16.3422 21.7355 16.3368 21.702 16.3348 21.6776C16.3328 21.6524 16.335 21.6429 16.3347 21.6442C16.3341 21.6466 16.3295 21.6649 16.3106 21.6857C16.2905 21.7078 16.267 21.7186 16.2513 21.7225L16.13 21.2375C16.0609 21.2547 15.9941 21.2905 15.9406 21.3493C15.8885 21.4067 15.8604 21.4734 15.8466 21.5358C15.8206 21.6528 15.8383 21.7816 15.8681 21.9006L16.3532 21.7794ZM16.2804 21.7133C16.9773 21.4453 17.661 21.1638 18.3313 20.8688L18.1299 20.4112C17.467 20.7029 16.7906 20.9814 16.1009 21.2467L16.2804 21.7133ZM18.3313 20.8688C18.9954 20.5766 19.6595 20.2977 20.3235 20.0321L20.1378 19.5679C19.4684 19.8356 18.7992 20.1167 18.1299 20.4112L18.3313 20.8688ZM20.4732 19.7394C20.3692 19.3234 20.291 18.8939 20.2389 18.4508L19.7423 18.5092C19.7969 18.9727 19.8787 19.4232 19.9881 19.8606L20.4732 19.7394ZM20.2389 18.4508C20.1868 18.0076 20.1606 17.5507 20.1606 17.08H19.6606C19.6606 17.5693 19.6878 18.0457 19.7423 18.5092L20.2389 18.4508ZM20.1606 17.08C20.1606 16.0529 20.2396 15.0119 20.3979 13.9571L19.9034 13.8829C19.7416 14.9614 19.6606 16.0271 19.6606 17.08H20.1606ZM20.398 13.9562C20.5572 12.8679 20.7429 11.8335 20.955 10.8528L20.4663 10.7472C20.2516 11.7398 20.064 12.7854 19.9033 13.8838L20.398 13.9562ZM20.9539 10.8576C21.1946 9.84129 21.3823 8.95652 21.5167 8.20395L21.0245 8.11605C20.8922 8.85681 20.7066 9.73204 20.4674 10.7424L20.9539 10.8576ZM21.5138 8.2179C21.648 7.65425 21.7688 7.09054 21.8762 6.52678L21.385 6.43322C21.2791 6.98946 21.1599 7.54575 21.0274 8.10209L21.5138 8.2179ZM21.8766 6.52472C21.9833 5.93805 22.0899 5.35139 22.1966 4.76472L21.7047 4.67528C21.598 5.26194 21.4913 5.84861 21.3847 6.43528L21.8766 6.52472ZM22.1878 4.79906C22.2225 4.69495 22.2406 4.58829 22.2406 4.48H21.7406C21.7406 4.5317 21.7321 4.58505 21.7135 4.64094L22.1878 4.79906ZM22.2406 4.48C22.2406 4.42616 22.2498 4.40065 22.2542 4.3918L21.807 4.1682C21.7581 4.26602 21.7406 4.37384 21.7406 4.48H22.2406ZM21.8706 4.08794C21.686 4.24178 21.4169 4.55711 21.072 5.00814L21.4692 5.31186C21.8176 4.85622 22.0553 4.58489 22.1907 4.47205L21.8706 4.08794ZM21.072 5.00814C20.7156 5.4742 20.3621 6.03242 20.0108 6.68093L20.4504 6.91907C20.7925 6.28758 21.1323 5.75247 21.4692 5.31186L21.072 5.00814ZM20.007 6.6882C19.9553 6.79164 19.8103 7.06861 19.5697 7.52303L20.0116 7.75697C20.251 7.30472 20.3993 7.02169 20.4542 6.9118L20.007 6.6882ZM19.5727 7.51743C19.3338 7.94216 19.095 8.35347 18.8563 8.75138L19.285 9.00862C19.5263 8.60652 19.7674 8.19117 20.0085 7.76256L19.5727 7.51743ZM18.8563 8.75138C18.7385 8.94769 18.6406 9.09541 18.562 9.19814C18.4748 9.31219 18.4352 9.33822 18.4388 9.33639L18.6624 9.78361C18.7728 9.72844 18.8731 9.61447 18.9592 9.50186C19.054 9.37792 19.1628 9.21231 19.285 9.00862L18.8563 8.75138ZM18.4388 9.33639C18.4161 9.34777 18.4008 9.35 18.3906 9.35V9.85C18.4871 9.85 18.5785 9.82556 18.6624 9.78361L18.4388 9.33639ZM18.3906 9.35C18.3818 9.35 18.3853 9.34862 18.396 9.35288C18.4081 9.35775 18.4218 9.36695 18.4327 9.37995C18.4427 9.39199 18.4447 9.40052 18.444 9.39809C18.4432 9.39504 18.4406 9.38346 18.4406 9.36H17.9406C17.9406 9.46856 17.9623 9.59652 18.0486 9.70005C18.1421 9.8123 18.2722 9.85 18.3906 9.85V9.35ZM18.4406 9.36C18.4406 9.34448 18.4453 9.30658 18.4678 9.23906L17.9935 9.08094C17.9626 9.17342 17.9406 9.26885 17.9406 9.36H18.4406ZM18.4678 9.23906C18.4788 9.20608 18.4879 9.18456 18.4942 9.1718C18.4973 9.16564 18.4989 9.16329 18.4986 9.16367C18.4985 9.16384 18.495 9.16914 18.4874 9.17678L18.1338 8.82322C18.0621 8.89494 18.0208 8.99886 17.9935 9.08094L18.4678 9.23906ZM18.5332 9.11387C19.1205 7.96596 19.6546 6.89777 20.1354 5.90937L19.6858 5.69063C19.2067 6.67556 18.6741 7.74071 18.0881 8.88613L18.5332 9.11387ZM20.133 5.9142C20.6394 4.92811 21.2125 3.82194 21.8523 2.59564L21.409 2.36436C20.7688 3.59139 20.1952 4.69855 19.6882 5.6858L20.133 5.9142ZM21.8492 2.60141C21.9881 2.35136 22.1385 2.03631 22.3004 1.65848L21.8408 1.46152C21.6828 1.83035 21.5398 2.12864 21.4121 2.35859L21.8492 2.60141ZM22.2972 1.66572C22.4773 1.27977 22.682 0.934859 22.9106 0.63L22.5106 0.329999C22.2593 0.665138 22.0373 1.04023 21.8441 1.45428L22.2972 1.66572ZM22.9027 0.640045C23.1486 0.344979 23.3517 0.249999 23.5106 0.249999V-0.250001C23.1363 -0.250001 22.806 -0.0249808 22.5186 0.319954L22.9027 0.640045ZM23.5106 0.249999C23.6451 0.249999 23.7552 0.306981 23.8521 0.481409L24.2892 0.238588C24.1194 -0.0669834 23.8562 -0.250001 23.5106 -0.250001V0.249999ZM23.8521 0.48141C23.9678 0.689683 24.0206 0.888274 24.0206 1.08H24.5206C24.5206 0.791723 24.4401 0.510315 24.2892 0.238588L23.8521 0.48141ZM24.0206 1.08C24.0206 1.1171 24.0056 1.20463 23.9535 1.36094L24.4278 1.51906C24.4824 1.35537 24.5206 1.2029 24.5206 1.08H24.0206ZM23.9632 1.33625C23.2636 2.86985 22.6988 4.47035 22.2686 6.13753L22.7527 6.26247C23.1758 4.62299 23.7309 3.05015 24.4181 1.54375L23.9632 1.33625ZM22.2686 6.13753C21.8394 7.80032 21.5175 9.45033 21.3027 11.0875L21.7985 11.1525C22.0105 9.53634 22.3285 7.90634 22.7527 6.26247L22.2686 6.13753ZM21.3023 11.091C21.1147 12.6989 21.0206 14.1887 21.0206 15.56H21.5206C21.5206 14.2113 21.6132 12.7411 21.7989 11.149L21.3023 11.091ZM21.0206 15.56C21.0206 16.2565 21.034 16.9135 21.0609 17.5309L21.5604 17.5091C21.5339 16.8999 21.5206 16.2502 21.5206 15.56H21.0206ZM21.0617 17.5426C21.1157 18.1377 21.1971 18.6941 21.306 19.2115L21.7953 19.1085C21.6909 18.6126 21.6122 18.0756 21.5596 17.4974L21.0617 17.5426ZM21.3006 19.16V19.24H21.8006V19.16H21.3006ZM21.6435 19.4721C22.3075 19.2065 22.9714 18.9542 23.6353 18.7152L23.4659 18.2448C22.7965 18.4858 22.1271 18.7401 21.4578 19.0079L21.6435 19.4721ZM23.6324 18.7162C24.3213 18.4778 24.9965 18.266 25.658 18.0807L25.5232 17.5993C24.8514 17.7874 24.1666 18.0022 23.4688 18.2438L23.6324 18.7162ZM25.5906 18.09H25.7106V17.59H25.5906V18.09ZM25.7106 18.09C25.7388 18.09 25.7139 18.0969 25.6838 18.0668C25.6538 18.0367 25.6606 18.0119 25.6606 18.04H26.1606C26.1606 17.9348 26.1342 17.81 26.0374 17.7132C25.9406 17.6165 25.8158 17.59 25.7106 17.59V18.09ZM25.6655 18.089C25.668 18.1014 25.6671 18.1055 25.6673 18.1033C25.6675 18.1021 25.6679 18.0997 25.6689 18.0964C25.67 18.093 25.6716 18.0894 25.6736 18.086C25.6778 18.0785 25.6818 18.0754 25.6812 18.0759C25.68 18.0768 25.6735 18.0816 25.6578 18.0879L25.8435 18.5521C25.945 18.5115 26.0449 18.444 26.1077 18.334C26.1716 18.2222 26.1777 18.1007 26.1558 17.991L25.6655 18.089ZM25.6806 18.08C25.0252 18.2712 24.3713 18.5302 23.7188 18.8564L23.9424 19.3036C24.57 18.9898 25.196 18.7422 25.8206 18.56L25.6806 18.08ZM23.7265 18.8527C23.0799 19.1491 22.4205 19.4855 21.7485 19.8619L21.9928 20.2981C22.6541 19.9278 23.3014 19.5976 23.9348 19.3073L23.7265 18.8527ZM21.6536 20.204C21.7501 20.3729 21.8035 20.518 21.824 20.6411L22.3172 20.5589C22.2844 20.362 22.2045 20.1604 22.0877 19.956L21.6536 20.204ZM21.8385 20.6928C21.8444 20.7075 21.8438 20.7117 21.8436 20.7072C21.8432 20.7014 21.8438 20.6879 21.8508 20.6715C21.8579 20.6552 21.8672 20.6454 21.8716 20.6417C21.8751 20.6387 21.8725 20.642 21.8578 20.6479L22.0435 21.1121C22.1459 21.0711 22.2551 20.9976 22.3104 20.8685C22.3657 20.7394 22.3437 20.6096 22.3027 20.5072L21.8385 20.6928ZM21.8716 20.6428C21.6486 20.7171 21.4628 20.75 21.3106 20.75V21.25C21.5318 21.25 21.7726 21.2029 22.0297 21.1172L21.8716 20.6428ZM21.3106 20.75C21.0975 20.75 20.9522 20.688 20.8474 20.5832L20.4938 20.9368C20.709 21.152 20.9904 21.25 21.3106 21.25V20.75ZM20.5485 20.5419C19.8828 20.9147 19.2305 21.2741 18.5916 21.6202L18.8297 22.0598C19.4708 21.7126 20.1251 21.352 20.7928 20.9781L20.5485 20.5419ZM18.5847 21.6241C17.9545 21.9917 17.3394 22.2924 16.7395 22.5272L16.9217 22.9928C17.5485 22.7476 18.1868 22.435 18.8366 22.0559L18.5847 21.6241Z" fill="#FFF"/>
</svg>
