<svg xmlns="http://www.w3.org/2000/svg" version="1.1" baseProfile="full" width="683" height="640" style="user-select: none; position: absolute; left: 0px; top: 0px;"><g><rect width="683" height="640" x="0" y="0" id="0" style="fill: transparent;"></rect></g><g><path d="M 307.475 345.9623 L 307.139 344.1811 L 311.0025 344.1984 L 311.0725 343.3458 L 310.5207 338.8792 L 309.3818 335.7619 L 311.7599 336.8108 L 313.6667 335.7503 L 315.1365 336.2921 L 316.6067 335.5083 L 317.6803 334.4651 L 318.3428 334.4194 L 320.8764 335.3702 L 320.3947 336.3551 L 320.3947 338.286 L 321.2077 339.8127 L 323.4703 342.1987 L 325.1762 344.5559 L 326.1346 346.7981 L 326.3201 348.7001 L 325.7633 350.7921 L 323.2195 355.8014 L 322.0456 357.7963 L 320.8061 359.1166 L 319.4063 359.7854 L 314.0781 361.5089 L 313.7017 360.5461 L 312.0558 359.8773 L 311.7751 357.4099 L 310.9974 354.205 L 310.6362 353.565 L 309.126 354.153 L 308.8701 350.7748 L 308.5641 349.1899 L 307.475 345.9623 Z" fill="#FFF" fill-opacity="1" stroke="#666" stroke-width="1" paint-order="fill" stroke-opacity="1" stroke-dasharray="" stroke-linecap="butt" stroke-linejoin="miter" stroke-miterlimit="10" transform="matrix(1,0,0,1,0,0)" clip-path="none"></path><path d="M 307.475 345.9623 L 308.5641 349.1899 L 308.8701 350.7748 L 309.126 354.153 L 310.6362 353.565 L 310.9974 354.205 L 311.7751 357.4099 L 312.0558 359.8773 L 313.7017 360.5461 L 314.0781 361.5089 L 311.4589 363.3194 L 310.5658 364.7783 L 310.079 366.2545 L 310.079 367.5113 L 311.2533 371.5135 L 311.6899 373.8201 L 311.3236 375.8444 L 310.3803 377.2748 L 308.4486 379.6046 L 307.3898 381.445 L 307.3898 383.475 L 309.1862 387.213 L 311.4589 390.3863 L 311.8 391.834 L 311.6646 394.7826 L 310.1894 397.9731 L 309.4771 399.6639 L 309.3417 402.8549 L 306.6573 403.4318 L 305.649 403.2013 L 305.378 401.9431 L 303.3561 401.0313 L 303.8425 400.2234 L 305.5534 399.6639 L 304.7559 397.6271 L 304.9915 396.3862 L 303.5116 396.9232 L 303.1803 396.5999 L 301.6499 397.7479 L 300.3706 397.9731 L 299.5529 397.2807 L 300.6716 394.6036 L 300.5612 393.3401 L 299.8088 389.8209 L 294.425 390.738 L 293.2962 388.5574 L 291.6406 385.8576 L 290.7323 383.7117 L 288.4444 376.5189 L 287.0096 377.2286 L 287.1799 377.9205 L 285.5495 378.4455 L 285.1681 376.9226 L 287.3308 376.1152 L 288.3091 376.0864 L 287.6115 373.8548 L 284.6965 375.1178 L 283.5926 370.7465 L 284.511 370.3602 L 284.0191 368.6299 L 285.0025 367.9034 L 284.6514 366.3233 L 285.9609 366.1563 L 286.0613 365.3489 L 286.6935 365.8739 L 290.7926 364.3226 L 292.127 363.6712 L 292.1624 361.7629 L 291.5504 362.0165 L 291.1938 359.9523 L 293.7729 360.1082 L 294.6058 359.3875 L 294.4654 357.9171 L 295.2431 356.9721 L 298.5746 355.0638 L 300.3457 353.7666 L 299.3721 350.3196 L 300.1751 350.1296 L 300.8975 348.7116 L 303.6069 348.0717 L 305.4884 347.2937 L 307.475 345.9623 Z" fill="#FFF" fill-opacity="1" stroke="#666" stroke-width="1" paint-order="fill" stroke-opacity="1" stroke-dasharray="" stroke-linecap="butt" stroke-linejoin="miter" stroke-miterlimit="10" transform="matrix(1,0,0,1,0,0)" clip-path="none"></path><path d="M 300.8975 348.7116 L 300.1751 350.1296 L 299.3721 350.3196 L 300.3457 353.7666 L 298.5746 355.0638 L 295.2431 356.9721 L 294.4654 357.9171 L 294.6058 359.3875 L 293.7729 360.1082 L 291.1938 359.9523 L 283.5626 359.5717 L 279.4433 360.4599 L 274.371 362.6218 L 272.3137 362.7546 L 271.6165 362.4086 L 271.1247 363.9709 L 269.805 364.519 L 269.1277 363.6192 L 265.5154 365.5741 L 264.4065 365.2508 L 262.0482 360.6731 L 264.3011 359.2316 L 264.0452 357.6924 L 264.6172 357.2944 L 264.4415 352.4752 L 264.4667 349.8183 L 265.0037 349.7721 L 264.7778 347.6853 L 265.8918 347.1204 L 266.1224 344.579 L 267.0357 344.3601 L 265.3649 344.0026 L 265.5757 343.0287 L 266.9401 342.2622 L 266.9451 341.0574 L 266.2729 339.1732 L 264.4115 337.623 L 265.3198 336.459 L 267.0206 336.4879 L 266.6694 334.7245 L 267.467 335.9346 L 267.6326 334.8977 L 268.2248 334.5748 L 268.6611 335.5487 L 268.1595 336.7357 L 269.6444 337.2313 L 270.1211 337.8188 L 271.8872 341.3283 L 272.981 343.1841 L 274.4111 343.1668 L 274.637 344.1007 L 276.3377 344.8499 L 276.9848 346.0138 L 278.3247 345.7261 L 282.5641 346.7115 L 286.5531 346.6768 L 286.8238 345.6683 L 288.028 345.7775 L 289.7991 344.9192 L 291.7658 344.4404 L 292.4183 343.9044 L 292.017 342.1814 L 292.2927 341.9278 L 293.8531 343.5589 L 295.0775 342.1525 L 296.5877 341.5877 L 296.6577 344.0257 L 297.1344 344.5674 L 299.0362 343.2245 L 299.4374 343.6167 L 299.7085 345.7318 L 300.8975 348.7116 Z" fill="#FFF" fill-opacity="1" stroke="#666" stroke-width="1" paint-order="fill" stroke-opacity="1" stroke-dasharray="" stroke-linecap="butt" stroke-linejoin="miter" stroke-miterlimit="10" transform="matrix(1,0,0,1,0,0)" clip-path="none"></path><path d="M 307.475 345.9623 L 305.4884 347.2937 L 303.6069 348.0717 L 300.8975 348.7116 L 299.7085 345.7318 L 299.4374 343.6167 L 299.0362 343.2245 L 297.1344 344.5674 L 296.6577 344.0257 L 296.5877 341.5877 L 296.7281 340.6946 L 297.8471 338.7873 L 299.3472 338.7181 L 303.1753 335.7849 L 304.6956 334.8457 L 304.0933 333.9238 L 304.8461 332.708 L 305.2275 330.6626 L 304.4549 330.2132 L 305.077 328.6057 L 302.1569 323.3861 L 300.0444 322.2689 L 298.3538 321.0645 L 297.4256 319.6302 L 295.7696 321.6809 L 295.5239 321.0703 L 295.4737 317.0729 L 294.8967 315.1377 L 295.2478 311.8894 L 293.7628 311.8606 L 293.3865 311.2904 L 293.8884 309.0501 L 295.1879 308.8832 L 296.3769 308.2726 L 296.1962 306.0213 L 297.9474 305.8139 L 298.3639 304.7198 L 298.0878 303.004 L 298.2636 301.9445 L 299.1513 301.6447 L 298.3736 298.5817 L 298.7803 297.5227 L 299.8138 297.5227 L 299.9243 298.1039 L 303.5167 298.0293 L 303.9378 299.3361 L 306.3964 298.3055 L 307.2744 297.4591 L 310.2497 297.2691 L 311.2482 297.7873 L 311.3085 299.8486 L 311.0775 304.5297 L 309.5824 304.6736 L 309.9437 308.5319 L 309.1913 311.0541 L 308.3382 312.4827 L 308.9603 314.9303 L 308.8347 317.7066 L 309.3316 319.406 L 309.9787 319.8838 L 311.7751 323.058 L 313.4058 325.1491 L 315.7034 327.4995 L 315.7388 329.1012 L 315.3924 329.9943 L 316.13 331.2905 L 315.3776 331.711 L 315.9694 332.604 L 316.6067 335.5083 L 315.1365 336.2921 L 313.6667 335.7503 L 311.7599 336.8108 L 309.3818 335.7619 L 310.5207 338.8792 L 311.0725 343.3458 L 311.0025 344.1984 L 307.139 344.1811 L 307.475 345.9623 Z" fill="#FFF" fill-opacity="1" stroke="#666" stroke-width="1" paint-order="fill" stroke-opacity="1" stroke-dasharray="" stroke-linecap="butt" stroke-linejoin="miter" stroke-miterlimit="10" transform="matrix(1,0,0,1,0,0)" clip-path="none"></path><path d="M 270.1211 337.8188 L 270.7985 337.4906 L 270.8035 336.3609 L 272.2535 336.1939 L 272.4642 337.087 L 273.3473 336.3898 L 274.6467 333.3821 L 275.249 332.8807 L 276.6788 334.6268 L 276.9498 333.6991 L 277.883 334.2751 L 278.4351 332.7195 L 279.7595 327.8854 L 278.5405 327.0616 L 277.6924 327.0559 L 277.4817 328.2255 L 274.3458 327.9258 L 274.3959 327.1194 L 272.8659 326.8369 L 271.832 325.074 L 272.1683 323.4438 L 273.0261 323.173 L 274.747 323.605 L 274.9076 322.1765 L 272.68 321.5948 L 271.832 322.5797 L 271.2553 321.3181 L 266.7095 320.1143 L 266.283 321.3066 L 264.3816 320.6329 L 264.602 319.5903 L 263.6439 319.3714 L 263.5837 317.1653 L 263.2023 317.3265 L 262.3845 314.2682 L 261.0349 314.9765 L 260.4279 314.6941 L 260.0916 312.8917 L 262.4145 311.9356 L 262.199 310.9334 L 263.7443 310.0177 L 264.527 310.8241 L 265.37 310.5879 L 265.3397 308.7966 L 267.4771 308.6931 L 267.4922 309.321 L 268.4907 308.7278 L 268.2147 307.9271 L 269.6798 306.7642 L 270.347 307.6567 L 272.3339 306.257 L 273.4977 306.2455 L 272.3289 310.127 L 271.7118 310.7087 L 273.5883 311.4001 L 273.5883 311.734 L 275.7106 312.7993 L 275.8863 312.2176 L 277.577 312.8108 L 278.0836 312.091 L 279.9955 312.6496 L 280.0254 311.0715 L 281.1593 310.2367 L 282.4688 309.845 L 284.7668 310.127 L 284.3053 311.7629 L 285.8956 312.1257 L 286.4979 312.9032 L 286.0963 313.7496 L 286.7938 314.2451 L 288.264 314.1932 L 286.6884 318.1155 L 288.304 319.0028 L 289.0012 318.6973 L 288.6202 320.5232 L 290.6121 320.4713 L 290.4815 321.8195 L 292.1675 322.4127 L 292.3479 323.9736 L 293.6925 324.2907 L 295.7696 321.6809 L 297.4256 319.6302 L 298.3538 321.0645 L 300.0444 322.2689 L 302.1569 323.3861 L 305.077 328.6057 L 304.4549 330.2132 L 305.2275 330.6626 L 304.8461 332.708 L 304.0933 333.9238 L 304.6956 334.8457 L 303.1753 335.7849 L 299.3472 338.7181 L 297.8471 338.7873 L 296.7281 340.6946 L 296.5877 341.5877 L 295.0775 342.1525 L 293.8531 343.5589 L 292.2927 341.9278 L 292.017 342.1814 L 292.4183 343.9044 L 291.7658 344.4404 L 289.7991 344.9192 L 288.028 345.7775 L 286.8238 345.6683 L 286.5531 346.6768 L 282.5641 346.7115 L 278.3247 345.7261 L 276.9848 346.0138 L 276.3377 344.8499 L 274.637 344.1007 L 274.4111 343.1668 L 272.981 343.1841 L 271.8872 341.3283 L 270.1211 337.8188 Z" fill="#FFF" fill-opacity="1" stroke="#666" stroke-width="1" paint-order="fill" stroke-opacity="1" stroke-dasharray="" stroke-linecap="butt" stroke-linejoin="miter" stroke-miterlimit="10" transform="matrix(1,0,0,1,0,0)" clip-path="none"></path><path d="M 317.4796 301.9959 L 317.5702 305.8885 L 319.1955 311.1234 L 320.4499 310.5071 L 322.9788 309.7353 L 323.7211 312.5404 L 322.0756 314.1759 L 321.3178 315.7483 L 321.5036 318.9162 L 322.7129 319.1582 L 325.091 321.7155 L 325.0206 323.5646 L 325.8033 325.5407 L 328.001 328.5826 L 329.1099 330.7261 L 328.5178 330.8526 L 328.6935 333.0881 L 325.2263 333.3186 L 322.7479 334.0331 L 320.8764 335.3702 L 318.3428 334.4194 L 317.6803 334.4651 L 316.6067 335.5083 L 315.9694 332.604 L 315.3776 331.711 L 316.13 331.2905 L 315.3924 329.9943 L 315.7388 329.1012 L 315.7034 327.4995 L 313.4058 325.1491 L 311.7751 323.058 L 309.9787 319.8838 L 309.3316 319.406 L 308.8347 317.7066 L 308.9603 314.9303 L 308.3382 312.4827 L 309.1913 311.0541 L 309.9437 308.5319 L 309.5824 304.6736 L 311.0775 304.5297 L 311.3085 299.8486 L 312.9843 299.9635 L 315.2271 300.4933 L 317.4648 300.5222 L 317.4796 301.9959 Z" fill="#FFF" fill-opacity="1" stroke="#666" stroke-width="1" paint-order="fill" stroke-opacity="1" stroke-dasharray="" stroke-linecap="butt" stroke-linejoin="miter" stroke-miterlimit="10" transform="matrix(1,0,0,1,0,0)" clip-path="none"></path><path d="M 328.6935 333.0881 L 328.5178 330.8526 L 329.1099 330.7261 L 328.001 328.5826 L 325.8033 325.5407 L 325.0206 323.5646 L 325.091 321.7155 L 322.7129 319.1582 L 321.5036 318.9162 L 321.3178 315.7483 L 322.0756 314.1759 L 323.7211 312.5404 L 322.9788 309.7353 L 320.4499 310.5071 L 319.1955 311.1234 L 317.5702 305.8885 L 317.4796 301.9959 L 321.5588 302.0364 L 321.378 296.3308 L 322.3567 295.3806 L 321.875 294.0396 L 320.425 292.9859 L 324.75 285.5602 L 329.1049 287.9434 L 330.0532 286.3777 L 331.0012 286.9301 L 331.9395 285.0478 L 340.5696 289.382 L 342.8723 291.2301 L 343.8809 292.5254 L 344.5734 294.1835 L 345.075 297.3841 L 345.0299 305.9578 L 345.3059 307.6798 L 346.3644 310.3863 L 347.6941 314.6594 L 347.8345 317.3957 L 347.4682 319.2559 L 345.6719 322.5739 L 344.0613 324.7805 L 337.7346 330.7434 L 335.8733 331.8034 L 332.6872 332.9442 L 328.6935 333.0881 Z" fill="#FFF" fill-opacity="1" stroke="#666" stroke-width="1" paint-order="fill" stroke-opacity="1" stroke-dasharray="" stroke-linecap="butt" stroke-linejoin="miter" stroke-miterlimit="10" transform="matrix(1,0,0,1,0,0)" clip-path="none"></path><path d="M 271.7569 462.5631 L 269.0678 463.4648 L 266.3584 463.1699 L 262.9865 461.1996 L 261.2355 460.8993 L 260.4478 461.2169 L 259.8808 459.9457 L 260.2771 456.7393 L 260.232 454.5668 L 260.4878 453.8851 L 261.5217 453.3996 L 264.3664 448.9287 L 264.9434 446.9704 L 266.5388 445.2026 L 266.0119 444.7811 L 264.9683 445.2431 L 262.5051 445.4918 L 262.7407 444.377 L 262.801 438.9592 L 262.5902 437.1457 L 262.8461 436.551 L 262.7209 432.3299 L 263.2376 429.9506 L 263.3228 422.8319 L 265.5306 421.7118 L 266.248 423.4555 L 269.8552 422.4219 L 271.5711 421.094 L 271.2402 419.7896 L 273.5732 419.0216 L 273.8189 418.2884 L 272.986 416.9782 L 273.789 416.447 L 274.2003 414.4324 L 275.3995 413.8382 L 276.0566 414.2014 L 276.5586 413.4802 L 275.2136 409.0993 L 273.217 403.9052 L 271.8922 404.3094 L 271.6414 403.4145 L 269.0977 404.1535 L 268.084 400.593 L 269.2182 400.0733 L 269.4138 400.6738 L 271.1449 398.729 L 270.7884 397.7652 L 269.9757 398.256 L 268.852 396.3112 L 269.7198 395.3248 L 268.4655 395.2555 L 267.4421 393.3747 L 267.7279 393.2246 L 266.7698 391.3957 L 267.171 391.1879 L 266.4536 389.6246 L 266.6943 389.1978 L 265.7611 387.1207 L 263.8395 385.044 L 264.5771 384.4671 L 263.8244 382.8408 L 263.3729 382.6907 L 262.7357 380.3316 L 261.8627 379.8471 L 261.9479 378.751 L 260.9544 376.5305 L 260.3926 376.4386 L 259.1786 373.5146 L 257.2768 369.9911 L 257.0813 368.3706 L 256.4541 366.8251 L 254.4621 363.2675 L 253.6595 361.2668 L 250.7744 357.1102 L 249.6705 355.0003 L 248.7074 354.1992 L 247.8391 354.4701 L 247.7291 355.3809 L 245.998 357.4446 L 244.809 358.3785 L 242.4106 358.7706 L 240.3584 356.4933 L 238.5624 354.1126 L 237.8598 354.0837 L 237.2376 352.9366 L 237.8248 352.441 L 237.5238 351.3916 L 235.9183 349.5358 L 236.5755 348.4234 L 236.0186 346.9477 L 235.2157 345.9565 L 235.4918 344.7229 L 234.9046 343.0114 L 235.4164 342.7521 L 235.1103 340.9078 L 234.0267 339.7439 L 233.5348 337.8938 L 232.9177 337.3006 L 232.4161 338.1012 L 231.7738 335.9923 L 229.4206 336.3267 L 228.8941 335.923 L 229.526 332.898 L 231.0513 332.1893 L 231.558 330.0405 L 234.0368 327.4417 L 234.1169 326.9866 L 236.2142 327.615 L 237.574 327.217 L 237.7396 328.4964 L 240.2079 330.5356 L 241.6579 329.925 L 243.4842 330.7146 L 244.879 330.7376 L 243.8657 332.5006 L 244.7036 333.9354 L 245.9879 334.8573 L 246.4343 337.3006 L 247.9146 339.9166 L 249.4598 340.7408 L 251.6524 340.954 L 256.1228 342.5904 L 258.8174 341.4265 L 259.9963 341.4496 L 262.7959 340.2799 L 263.1774 338.4125 L 264.4115 337.623 L 266.2729 339.1732 L 266.9451 341.0574 L 266.9401 342.2622 L 265.5757 343.0287 L 265.3649 344.0026 L 267.0357 344.3601 L 266.1224 344.579 L 265.8918 347.1204 L 264.7778 347.6853 L 265.0037 349.7721 L 264.4667 349.8183 L 264.4415 352.4752 L 264.6172 357.2944 L 264.0452 357.6924 L 264.3011 359.2316 L 262.0482 360.6731 L 264.4065 365.2508 L 265.5154 365.5741 L 269.1277 363.6192 L 269.805 364.519 L 271.1247 363.9709 L 271.6165 362.4086 L 272.3137 362.7546 L 274.371 362.6218 L 279.4433 360.4599 L 283.5626 359.5717 L 291.1938 359.9523 L 291.5504 362.0165 L 292.1624 361.7629 L 292.127 363.6712 L 290.7926 364.3226 L 286.6935 365.8739 L 286.0613 365.3489 L 285.9609 366.1563 L 284.6514 366.3233 L 285.0025 367.9034 L 284.0191 368.6299 L 284.511 370.3602 L 283.5926 370.7465 L 284.6965 375.1178 L 287.6115 373.8548 L 288.3091 376.0864 L 287.3308 376.1152 L 285.1681 376.9226 L 285.5495 378.4455 L 287.1799 377.9205 L 287.0096 377.2286 L 288.4444 376.5189 L 290.7323 383.7117 L 291.6406 385.8576 L 293.2962 388.5574 L 294.425 390.738 L 299.8088 389.8209 L 300.5612 393.3401 L 300.6716 394.6036 L 299.5529 397.2807 L 300.3706 397.9731 L 301.6499 397.7479 L 303.1803 396.5999 L 303.5116 396.9232 L 304.9915 396.3862 L 304.7559 397.6271 L 305.5534 399.6639 L 303.8425 400.2234 L 303.3561 401.0313 L 305.378 401.9431 L 305.649 403.2013 L 306.6573 403.4318 L 309.3417 402.8549 L 309.4771 399.6639 L 310.1894 397.9731 L 312.0208 398.5327 L 313.3553 397.5809 L 313.4105 396.8886 L 314.5595 398.5731 L 316.0145 398.6481 L 314.6046 395.4576 L 315.9795 395.1227 L 316.2155 394.1306 L 317.585 393.2419 L 317.6803 391.9957 L 319.2309 392.1112 L 320.1489 394.7883 L 322.216 393.4498 L 323.3148 396.7384 L 324.6543 396.3401 L 324.1376 394.9784 L 324.7247 394.171 L 326.8369 393.5994 L 327.7051 395.1285 L 327.9808 396.444 L 330.4747 395.9479 L 330.9962 396.4613 L 331.8695 395.7401 L 334.0819 394.9322 L 334.3829 395.5154 L 335.4969 395.1458 L 336.4149 397.0671 L 337.0071 396.2765 L 337.9905 396.023 L 338.7028 398.2791 L 339.9521 399.1505 L 340.9405 398.204 L 340.5043 397.3384 L 341.6229 397.1075 L 341.9892 397.6902 L 342.6918 396.6345 L 343.2035 397.5001 L 344.3475 398.0712 L 343.62 399.0812 L 344.8992 400.8003 L 344.804 401.2623 L 345.7123 402.9011 L 345.1403 403.1898 L 345.5917 404.2978 L 346.8562 405.4459 L 347.0168 406.86 L 345.9681 407.6967 L 345.0649 407.7083 L 344.9595 406.8889 L 344.0664 407.6678 L 341.3671 408.545 L 341.3422 409.4977 L 340.2632 410.1034 L 340.9907 412.0545 L 342.0697 413.2723 L 343.0982 412.9086 L 343.3241 412.118 L 344.9595 411.6619 L 345.687 412.222 L 347.9197 412.643 L 348.597 413.3878 L 348.9633 412.7815 L 349.9066 413.3878 L 347.1521 415.2465 L 345.3409 415.7657 L 345.3608 416.1583 L 343.5045 416.6144 L 344.0465 417.186 L 342.8073 417.417 L 341.7936 418.4673 L 343.2237 419.4951 L 341.4324 420.326 L 341.1816 421.2152 L 340.2632 421.2903 L 339.7768 422.2487 L 340.2033 424.5347 L 338.3719 425.1121 L 338.3618 425.9204 L 337.4636 426.6364 L 338.0107 428.2992 L 337.7094 429.5868 L 339.3001 429.275 L 339.9926 428.5533 L 340.6244 428.8593 L 340.981 428.1433 L 341.7586 428.1895 L 342.4962 427.4563 L 342.9978 428.9921 L 343.3241 428.8247 L 344.3273 430.3489 L 345.1601 430.9153 L 344.202 431.995 L 344.2168 437.342 L 343.7654 437.7005 L 343.8206 440.1087 L 342.8672 440.8881 L 341.7987 440.7149 L 341.6031 441.8471 L 342.2804 442.9561 L 343.1382 442.8984 L 343.1231 442.1646 L 343.926 442.1646 L 344.4929 440.2992 L 345.9479 441.7143 L 347.6638 440.1722 L 347.4231 439.7449 L 348.8431 439.0747 L 349.7211 441.8298 L 349.6908 442.9446 L 348.3715 444.007 L 347.9399 445.9191 L 346.5098 446.1789 L 347.3477 447.0686 L 347.9049 446.8087 L 348.5321 449.2001 L 348.0954 449.7139 L 348.2611 450.8062 L 347.2676 451.4875 L 348.1755 452.7067 L 344.9346 454.0063 L 342.9224 454.243 L 343.0328 455.0985 L 341.9791 455.266 L 341.7936 457.2705 L 340.6197 457.5365 L 339.3903 455.2544 L 338.3669 454.6996 L 336.5405 455.2082 L 336.3749 454.4687 L 335.1959 453.9081 L 334.2775 454.4052 L 333.0686 453.8735 L 331.0063 452.0018 L 330.0781 452.2212 L 329.993 450.6786 L 330.7205 450.8523 L 330.2687 449.7717 L 328.879 448.2411 L 326.5009 449.7197 L 325.5875 449.6273 L 323.8467 450.6036 L 322.3213 452.1866 L 322.3365 452.7702 L 321.2727 452.7298 L 319.8379 447.0801 L 320.1738 445.7747 L 318.8293 444.7176 L 317.6453 445.1391 L 314.2134 445.4918 L 312.4373 446.1616 L 310.3251 447.6979 L 308.288 448.3508 L 304.0886 448.322 L 301.3843 449.125 L 299.9492 449.9569 L 298.7951 451.0544 L 297.9976 452.3078 L 295.3081 454.5495 L 291.4147 456.2076 L 290.025 456.6118 L 284.586 457.5654 L 277.7173 460.1708 L 271.7569 462.5631 Z" fill="#FFF" fill-opacity="1" stroke="#666" stroke-width="1" paint-order="fill" stroke-opacity="1" stroke-dasharray="" stroke-linecap="butt" stroke-linejoin="miter" stroke-miterlimit="10" transform="matrix(1,0,0,1,0,0)" clip-path="none"></path><path d="M 295.7696 321.6809 L 293.6925 324.2907 L 292.3479 323.9736 L 292.1675 322.4127 L 290.4815 321.8195 L 290.6121 320.4713 L 288.6202 320.5232 L 289.0012 318.6973 L 288.304 319.0028 L 286.6884 318.1155 L 288.264 314.1932 L 286.7938 314.2451 L 286.0963 313.7496 L 286.4979 312.9032 L 285.8956 312.1257 L 284.3053 311.7629 L 284.7668 310.127 L 282.4688 309.845 L 281.1593 310.2367 L 280.0254 311.0715 L 279.9955 312.6496 L 278.0836 312.091 L 277.577 312.8108 L 275.8863 312.2176 L 275.7106 312.7993 L 273.5883 311.734 L 273.5883 311.4001 L 271.7118 310.7087 L 272.3289 310.127 L 273.4977 306.2455 L 272.3339 306.257 L 270.347 307.6567 L 269.6798 306.7642 L 268.2147 307.9271 L 268.4907 308.7278 L 267.4922 309.321 L 267.4771 308.6931 L 265.3397 308.7966 L 265.37 310.5879 L 264.527 310.8241 L 263.7443 310.0177 L 263.5184 308.9866 L 262.9114 309.4302 L 261.8678 306.8734 L 263.4484 305.9578 L 264.6374 302.7042 L 265.134 302.019 L 266.253 299.2957 L 267.7831 299.5262 L 267.8134 298.1616 L 268.3251 297.3095 L 267.0206 297.5395 L 266.7546 296.3366 L 267.7178 295.9796 L 267.1458 295.4729 L 265.8416 292.6462 L 265.6157 291.5467 L 266.0322 290.211 L 267.2714 290.0845 L 266.5738 287.3905 L 265.8716 287.6898 L 264.6172 286.0207 L 264.1105 286.1357 L 263.7291 285.0362 L 262.2994 284.9097 L 262.2088 282.8778 L 263.072 283.0736 L 264.1907 281.8707 L 263.9651 280.6106 L 265.5204 279.7527 L 265.1239 278.4464 L 264.6122 278.2164 L 264.1304 276.6796 L 263.2073 275.3448 L 263.5584 273.8369 L 262.6003 273.2672 L 262.841 272.623 L 261.8977 271.8002 L 260.9396 270.35 L 261.8678 269.8149 L 261.5867 268.5259 L 260.1721 268.5606 L 258.8924 264.9875 L 257.939 264.6825 L 258.9928 262.6578 L 258.9228 261.4381 L 258.3205 260.6153 L 256.8655 260.6904 L 255.8922 260.2357 L 256.2134 258.1359 L 256.8406 257.6875 L 255.7367 255.9847 L 260.8444 253.6953 L 261.5567 254.4892 L 262.53 254.2819 L 262.2943 253.1377 L 262.8764 252.8788 L 262.2589 251.2968 L 263.7641 250.2791 L 263.714 247.4206 L 263.2524 245.4195 L 263.7944 245.2583 L 263.7793 243.9298 L 262.7158 240.1461 L 261.8425 240.3703 L 260.7689 239.6745 L 259.9913 236.3339 L 260.4579 235.9547 L 259.2789 232.9822 L 257.7135 233.0452 L 257.3021 232.0737 L 257.9794 231.8842 L 256.986 230.5273 L 256.8052 227.5668 L 257.8088 227.3426 L 257.9942 226.2215 L 257.0509 226.5034 L 255.7165 224.5779 L 257.3573 223.336 L 256.3285 220.3702 L 255.3852 220.669 L 254.2564 217.439 L 253.6844 216.7952 L 254.2766 216.2727 L 253.88 214.9447 L 252.932 214.554 L 252.2547 213.3646 L 250.8798 212.8988 L 250.5438 211.451 L 251.507 210.0831 L 252.691 209.6809 L 252.5657 208.7676 L 254.3066 208.4857 L 254.8785 209.9339 L 256.108 210.7211 L 256.5797 208.555 L 257.8488 208.503 L 258.4659 209.6982 L 257.7987 209.8935 L 257.7535 211.4683 L 259.1234 211.5025 L 258.9177 210.2327 L 260.3926 209.2902 L 261.2204 209.2902 L 263.5032 207.3424 L 266.2678 205.5323 L 271.4109 207.3598 L 273.0362 208.0666 L 278.1038 210.8015 L 288.6151 217.4852 L 288.9262 218.3642 L 288.0882 220.2378 L 288.2189 221.3358 L 290.1553 222.7269 L 293.4016 225.4401 L 299.0261 231.3034 L 303.2655 235.0463 L 309.6427 241.0319 L 316.0095 246.3164 L 320.6758 250.8599 L 324.9055 256.0708 L 325.3519 254.7712 L 323.2195 253.6838 L 323.5959 252.9996 L 326.6413 254.6504 L 328.9645 256.4163 L 328.7285 256.9051 L 326.1447 255.4612 L 325.397 256.5943 L 330.4044 261.9558 L 327.2082 266.2534 L 325.3721 269.5041 L 324.1275 272.0821 L 323.9922 274.1708 L 324.1275 276.323 L 325.7835 280.0178 L 328.1215 282.5443 L 331.9395 285.0478 L 331.0012 286.9301 L 330.0532 286.3777 L 329.1049 287.9434 L 324.75 285.5602 L 320.425 292.9859 L 321.875 294.0396 L 322.3567 295.3806 L 321.378 296.3308 L 321.5588 302.0364 L 317.4796 301.9959 L 317.4648 300.5222 L 315.2271 300.4933 L 312.9843 299.9635 L 311.3085 299.8486 L 311.2482 297.7873 L 310.2497 297.2691 L 307.2744 297.4591 L 306.3964 298.3055 L 303.9378 299.3361 L 303.5167 298.0293 L 299.9243 298.1039 L 299.8138 297.5227 L 298.7803 297.5227 L 298.3736 298.5817 L 299.1513 301.6447 L 298.2636 301.9445 L 298.0878 303.004 L 298.3639 304.7198 L 297.9474 305.8139 L 296.1962 306.0213 L 296.3769 308.2726 L 295.1879 308.8832 L 293.8884 309.0501 L 293.3865 311.2904 L 293.7628 311.8606 L 295.2478 311.8894 L 294.8967 315.1377 L 295.4737 317.0729 L 295.5239 321.0703 L 295.7696 321.6809 Z" fill="#FFF" fill-opacity="1" stroke="#666" stroke-width="1" paint-order="fill" stroke-opacity="1" stroke-dasharray="" stroke-linecap="butt" stroke-linejoin="miter" stroke-miterlimit="10" transform="matrix(1,0,0,1,0,0)" clip-path="none"></path><path d="M 197.7915 318.8012 L 198.4187 317.937 L 198.4389 316.8193 L 199.8336 316.4277 L 200.516 315.27 L 199.7986 313.5018 L 198.7499 313.623 L 198.1328 312.3504 L 196.9034 311.4458 L 197.4201 310.4152 L 196.0557 308.1056 L 196.7229 308.0368 L 195.3232 304.7082 L 194.194 302.8943 L 192.4532 304.8578 L 192.704 306.1247 L 190.5868 306.5683 L 189.2068 306.3148 L 188.9109 303.9422 L 189.1415 303.5679 L 188.4894 301.8463 L 188.7301 300.7007 L 188.1683 299.4165 L 188.2336 298.2708 L 189.8142 296.3823 L 189.7788 295.3233 L 190.4161 295.254 L 190.1552 292.1857 L 189.6384 292.1164 L 189.2671 290.8673 L 189.5179 287.5921 L 189.3826 286.2911 L 187.0395 286.9936 L 184.8819 286.6597 L 184.6513 284.8924 L 185.6848 284.6797 L 184.621 282.694 L 182.6694 283.2579 L 182.4237 282.7686 L 181.3999 283.1944 L 181.4353 281.5657 L 181.0538 281.2149 L 181.375 278.4752 L 180.833 276.5131 L 180.9084 275.5229 L 181.6056 275.5633 L 181.7463 276.4323 L 183.0357 276.2254 L 183.1512 275.3848 L 185.6899 274.5216 L 185.2835 273.6127 L 183.8935 273.3365 L 183.3619 271.7424 L 184.9674 271.0751 L 186.7984 269.8034 L 187.155 270.6493 L 189.6734 269.2337 L 189.8593 269.6422 L 192.2576 268.5202 L 191.9364 267.732 L 193.2106 266.8919 L 193.3463 267.364 L 195.8749 266.4719 L 196.0756 265.7473 L 195.3932 264.3086 L 194.2142 263.1409 L 196.2513 262.0939 L 195.5938 260.7361 L 197.4302 260.3276 L 196.2914 259.7468 L 196.6176 258.3832 L 197.8467 257.6759 L 197.5609 256.6405 L 199.2869 255.6512 L 199.638 254.5811 L 198.0675 253.8796 L 198.4338 252.7922 L 197.7013 252.8673 L 196.0456 251.8145 L 196.1759 250.2445 L 195.0723 249.9683 L 195.0871 249.3072 L 196.8583 248.9618 L 198.3436 247.0641 L 200.5409 247.0468 L 200.7719 246.0003 L 201.6047 246.351 L 200.9624 245.2237 L 201.0277 243.9472 L 199.5023 243.9298 L 197.34 243.2803 L 195.6541 242.038 L 195.2026 240.6811 L 195.4837 238.3119 L 200.3803 235.5462 L 201.1482 235.9374 L 202.2319 235.3105 L 202.8389 236.202 L 203.5967 235.3797 L 205.453 235.7305 L 207.5604 234.6898 L 209.4517 233.2925 L 209.2359 231.798 L 209.4517 230.1881 L 212.6981 226.8138 L 215.5327 226.0781 L 215.7185 224.6467 L 216.782 223.3649 L 219.6722 221.3763 L 219.9078 222.1461 L 219.4062 222.9107 L 221.3628 223.2556 L 221.9651 222.8476 L 223.6359 222.8707 L 223.9419 222.0715 L 225.437 222.1923 L 225.6127 220.4221 L 224.83 219.9333 L 226.3904 217.1575 L 227.2633 217.0598 L 227.0226 214.8528 L 227.9205 215.2035 L 229.2351 214.3644 L 229.3304 215.7092 L 230.2888 217.439 L 230.5097 220.3875 L 231.869 220.054 L 231.0163 221.0139 L 231.4678 222.3703 L 232.4161 222.1004 L 232.9679 221.1463 L 233.7405 221.0486 L 233.8361 219.4738 L 234.5636 219.2091 L 234.2573 222.0946 L 236.6606 221.5081 L 236.7609 220.5828 L 237.9955 219.4507 L 238.8182 219.3415 L 238.7782 217.962 L 239.34 217.3644 L 240.484 218.8699 L 241.9892 218.37 L 242.0693 217.7551 L 243.4691 216.7841 L 243.2435 215.9508 L 244.6834 216.2438 L 245.2857 215.8185 L 246.7407 216.6114 L 247.182 215.3301 L 248.2206 216.238 L 250.0671 215.4162 L 250.052 214.3586 L 250.7495 213.9622 L 250.8798 212.8988 L 252.2547 213.3646 L 252.932 214.554 L 253.88 214.9447 L 254.2766 216.2727 L 253.6844 216.7952 L 254.2564 217.439 L 255.3852 220.669 L 256.3285 220.3702 L 257.3573 223.336 L 255.7165 224.5779 L 257.0509 226.5034 L 257.9942 226.2215 L 257.8088 227.3426 L 256.8052 227.5668 L 256.986 230.5273 L 257.9794 231.8842 L 257.3021 232.0737 L 257.7135 233.0452 L 259.2789 232.9822 L 260.4579 235.9547 L 259.9913 236.3339 L 260.7689 239.6745 L 261.8425 240.3703 L 262.7158 240.1461 L 263.7793 243.9298 L 263.7944 245.2583 L 263.2524 245.4195 L 263.714 247.4206 L 263.7641 250.2791 L 262.2589 251.2968 L 262.8764 252.8788 L 262.2943 253.1377 L 262.53 254.2819 L 261.5567 254.4892 L 260.8444 253.6953 L 255.7367 255.9847 L 256.8406 257.6875 L 256.2134 258.1359 L 255.8922 260.2357 L 256.8655 260.6904 L 258.3205 260.6153 L 258.9228 261.4381 L 258.9928 262.6578 L 257.939 264.6825 L 258.8924 264.9875 L 260.1721 268.5606 L 261.5867 268.5259 L 261.8678 269.8149 L 260.9396 270.35 L 261.8977 271.8002 L 262.841 272.623 L 262.6003 273.2672 L 263.5584 273.8369 L 263.2073 275.3448 L 264.1304 276.6796 L 264.6122 278.2164 L 265.1239 278.4464 L 265.5204 279.7527 L 263.9651 280.6106 L 264.1907 281.8707 L 263.072 283.0736 L 262.2088 282.8778 L 262.2994 284.9097 L 263.7291 285.0362 L 264.1105 286.1357 L 264.6172 286.0207 L 265.8716 287.6898 L 266.5738 287.3905 L 267.2714 290.0845 L 266.0322 290.211 L 265.6157 291.5467 L 265.8416 292.6462 L 267.1458 295.4729 L 267.7178 295.9796 L 266.7546 296.3366 L 267.0206 297.5395 L 268.3251 297.3095 L 267.8134 298.1616 L 267.7831 299.5262 L 266.253 299.2957 L 265.134 302.019 L 264.6374 302.7042 L 263.4484 305.9578 L 261.8678 306.8734 L 262.9114 309.4302 L 263.5184 308.9866 L 263.7443 310.0177 L 262.199 310.9334 L 262.4145 311.9356 L 260.0916 312.8917 L 260.4279 314.6941 L 261.0349 314.9765 L 262.3845 314.2682 L 263.2023 317.3265 L 263.5837 317.1653 L 263.6439 319.3714 L 264.602 319.5903 L 264.3816 320.6329 L 266.283 321.3066 L 266.7095 320.1143 L 271.2553 321.3181 L 271.832 322.5797 L 272.68 321.5948 L 274.9076 322.1765 L 274.747 323.605 L 273.0261 323.173 L 272.1683 323.4438 L 271.832 325.074 L 272.8659 326.8369 L 274.3959 327.1194 L 274.3458 327.9258 L 277.4817 328.2255 L 277.6924 327.0559 L 278.5405 327.0616 L 279.7595 327.8854 L 278.4351 332.7195 L 277.883 334.2751 L 276.9498 333.6991 L 276.6788 334.6268 L 275.249 332.8807 L 274.6467 333.3821 L 273.3473 336.3898 L 272.4642 337.087 L 272.2535 336.1939 L 270.8035 336.3609 L 270.7985 337.4906 L 270.1211 337.8188 L 269.6444 337.2313 L 268.1595 336.7357 L 268.6611 335.5487 L 268.2248 334.5748 L 267.6326 334.8977 L 267.467 335.9346 L 266.6694 334.7245 L 267.0206 336.4879 L 265.3198 336.459 L 264.4115 337.623 L 263.1774 338.4125 L 262.7959 340.2799 L 259.9963 341.4496 L 258.8174 341.4265 L 256.1228 342.5904 L 251.6524 340.954 L 249.4598 340.7408 L 247.9146 339.9166 L 246.4343 337.3006 L 245.9879 334.8573 L 244.7036 333.9354 L 243.8657 332.5006 L 244.879 330.7376 L 243.4842 330.7146 L 241.6579 329.925 L 240.2079 330.5356 L 237.7396 328.4964 L 237.574 327.217 L 236.2142 327.615 L 234.1169 326.9866 L 234.0368 327.4417 L 231.3573 327.5572 L 231.292 326.9062 L 229.7316 327.1136 L 228.0861 325.8058 L 227.1782 325.5118 L 224.9805 325.5061 L 225.0206 325.9843 L 222.9784 326.5545 L 223.0939 327.2748 L 221.7793 328.0586 L 222.1607 328.5941 L 219.6018 329.5275 L 219.0399 326.8889 L 218.0064 326.4106 L 218.0263 327.7646 L 217.5449 328.0182 L 216.782 326.7792 L 215.5179 328.1909 L 215.6182 328.8246 L 214.4292 329.1012 L 213.0694 329.9885 L 213.1344 331.0312 L 212.0908 330.9219 L 211.9655 329.8788 L 210.2897 329.3317 L 209.5921 330.5014 L 208.6842 330.5413 L 207.8214 329.4987 L 207.0285 329.9769 L 206.8329 328.8015 L 206.1004 329.4063 L 205.1921 328.3232 L 204.1687 329.2509 L 203.2755 328.6403 L 203.7973 327.2344 L 202.9493 326.9923 L 202.814 324.9128 L 200.9927 322.3954 L 200.4308 323.1441 L 199.2717 321.7386 L 198.4389 323.8528 L 197.0842 323.1383 L 197.8568 321.0073 L 197.7915 318.8012 Z" fill="#FFF" fill-opacity="1" stroke="#666" stroke-width="1" paint-order="fill" stroke-opacity="1" stroke-dasharray="" stroke-linecap="butt" stroke-linejoin="miter" stroke-miterlimit="10" transform="matrix(1,0,0,1,0,0)" clip-path="none"></path><path d="M 348.1755 452.7067 L 347.2676 451.4875 L 348.2611 450.8062 L 348.0954 449.7139 L 348.5321 449.2001 L 347.9049 446.8087 L 347.3477 447.0686 L 346.5098 446.1789 L 347.9399 445.9191 L 348.3715 444.007 L 349.6908 442.9446 L 349.7211 441.8298 L 348.8431 439.0747 L 347.4231 439.7449 L 347.6638 440.1722 L 345.9479 441.7143 L 344.4929 440.2992 L 343.926 442.1646 L 343.1231 442.1646 L 343.1382 442.8984 L 342.2804 442.9561 L 341.6031 441.8471 L 341.7987 440.7149 L 342.8672 440.8881 L 343.8206 440.1087 L 343.7654 437.7005 L 344.2168 437.342 L 344.202 431.995 L 345.1601 430.9153 L 344.3273 430.3489 L 343.3241 428.8247 L 342.9978 428.9921 L 342.4962 427.4563 L 341.7586 428.1895 L 340.981 428.1433 L 340.6244 428.8593 L 339.9926 428.5533 L 339.3001 429.275 L 337.7094 429.5868 L 338.0107 428.2992 L 337.4636 426.6364 L 338.3618 425.9204 L 338.3719 425.1121 L 340.2033 424.5347 L 339.7768 422.2487 L 340.2632 421.2903 L 341.1816 421.2152 L 341.4324 420.326 L 343.2237 419.4951 L 341.7936 418.4673 L 342.8073 417.417 L 344.0465 417.186 L 343.5045 416.6144 L 345.3608 416.1583 L 345.3409 415.7657 L 347.1521 415.2465 L 349.9066 413.3878 L 348.9633 412.7815 L 348.597 413.3878 L 347.9197 412.643 L 345.687 412.222 L 344.9595 411.6619 L 343.3241 412.118 L 343.0982 412.9086 L 342.0697 413.2723 L 340.9907 412.0545 L 340.2632 410.1034 L 341.3422 409.4977 L 341.3671 408.545 L 344.0664 407.6678 L 344.9595 406.8889 L 345.0649 407.7083 L 345.9681 407.6967 L 347.0168 406.86 L 346.8562 405.4459 L 345.5917 404.2978 L 345.1403 403.1898 L 345.7123 402.9011 L 344.804 401.2623 L 344.8992 400.8003 L 343.62 399.0812 L 344.3475 398.0712 L 343.2035 397.5001 L 342.6918 396.6345 L 341.9892 397.6902 L 341.6229 397.1075 L 340.5043 397.3384 L 340.9405 398.204 L 339.9521 399.1505 L 338.7028 398.2791 L 337.9905 396.023 L 337.0071 396.2765 L 336.4149 397.0671 L 335.4969 395.1458 L 334.3829 395.5154 L 334.0819 394.9322 L 331.8695 395.7401 L 330.9962 396.4613 L 330.4747 395.9479 L 327.9808 396.444 L 327.7051 395.1285 L 326.8369 393.5994 L 324.7247 394.171 L 324.1376 394.9784 L 324.6543 396.3401 L 323.3148 396.7384 L 322.216 393.4498 L 320.1489 394.7883 L 319.2309 392.1112 L 317.6803 391.9957 L 317.585 393.2419 L 316.2155 394.1306 L 315.9795 395.1227 L 314.6046 395.4576 L 316.0145 398.6481 L 314.5595 398.5731 L 313.4105 396.8886 L 313.3553 397.5809 L 312.0208 398.5327 L 310.1894 397.9731 L 311.6646 394.7826 L 311.8 391.834 L 311.4589 390.3863 L 309.1862 387.213 L 307.3898 383.475 L 307.3898 381.445 L 308.4486 379.6046 L 310.3803 377.2748 L 311.3236 375.8444 L 311.6899 373.8201 L 311.2533 371.5135 L 310.079 367.5113 L 310.079 366.2545 L 310.5658 364.7783 L 311.4589 363.3194 L 314.0781 361.5089 L 319.4063 359.7854 L 320.8061 359.1166 L 322.0456 357.7963 L 323.2195 355.8014 L 325.7633 350.7921 L 326.3201 348.7001 L 326.1346 346.7981 L 325.1762 344.5559 L 323.4703 342.1987 L 321.2077 339.8127 L 320.3947 338.286 L 320.3947 336.3551 L 320.8764 335.3702 L 322.7479 334.0331 L 325.2263 333.3186 L 328.6935 333.0881 L 332.6872 332.9442 L 335.8733 331.8034 L 337.7346 330.7434 L 344.0613 324.7805 L 345.6719 322.5739 L 347.4682 319.2559 L 347.8345 317.3957 L 347.6941 314.6594 L 346.3644 310.3863 L 345.3059 307.6798 L 345.0299 305.9578 L 345.075 297.3841 L 344.5734 294.1835 L 343.8809 292.5254 L 342.8723 291.2301 L 340.5696 289.382 L 331.9395 285.0478 L 328.1215 282.5443 L 325.7835 280.0178 L 324.1275 276.323 L 323.9922 274.1708 L 324.1275 272.0821 L 325.3721 269.5041 L 327.2082 266.2534 L 330.4044 261.9558 L 336.4604 264.9875 L 344.3273 267.3351 L 356.5595 270.7989 L 359.9264 272.6056 L 362.6405 274.7521 L 391.1087 296.7567 L 399.4025 303.0381 L 403.04 305.8716 L 405.4181 308.3881 L 410.7016 315.6443 L 434.5439 357.1679 L 450.2582 377.1651 L 461.3263 389.0535 L 463.2879 393.3516 L 483.9745 420.2106 L 489.7094 429.1595 L 495.0776 444.1633 L 499.9045 467.0995 L 501.816 482.965 L 502.6338 500.0445 L 502.0871 512.1037 L 500.9933 517.802 L 497.8974 523.7495 L 492.6143 529.3391 L 486.8344 535.7221 L 486.694 537.8401 L 487.1054 539.8951 L 492.243 553.3366 L 482.8555 559.1615 L 475.9669 544.9655 L 472.6051 541.9381 L 468.7016 541.3304 L 428.7538 540.0279 L 419.9383 523.8765 L 419.507 517.6976 L 420.7563 511.8491 L 421.0725 511.7163 L 421.3081 509.3621 L 422.5874 509.1653 L 422.3467 506.5569 L 423.3553 502.6298 L 423.4203 500.2817 L 423.1846 498.194 L 423.4105 495.1584 L 423.8721 494.3429 L 424.1882 491.5733 L 422.9389 487.1679 L 422.9941 485.098 L 421.3933 484.8439 L 421.2681 483.6993 L 420.0938 483.0516 L 419.4518 481.5831 L 418.8896 482.4449 L 417.9564 482.2943 L 418.1119 481.4908 L 417.0986 481.5427 L 417.1737 480.7161 L 418.2076 479.9299 L 416.903 478.5601 L 416.938 477.1209 L 416.3108 476.3751 L 413.6769 474.6589 L 412.6834 474.5025 L 412.1865 475.0573 L 410.7016 472.7978 L 409.3469 472.7342 L 408.2181 471.7806 L 408.5992 470.85 L 407.1694 469.0063 L 406.4318 467.4112 L 399.5328 461.0841 L 396.9039 459.1368 L 394.7214 457.9638 L 392.3833 457.0395 L 390.6172 456.6522 L 388.9966 456.8143 L 385.7355 455.8549 L 385.2988 456.8028 L 383.9192 455.9478 L 381.6061 455.4161 L 378.5102 455.1563 L 375.6807 455.1101 L 366.2531 455.4334 L 365.2246 453.9832 L 364.1409 451.3085 L 360.2974 451.3662 L 357.2369 450.9274 L 356.911 451.5741 L 353.1677 451.5163 L 352.6712 452.1519 L 350.4385 452.1635 L 348.1755 452.7067 Z M 482.6949 348.2386 L 483.9041 343.9564 L 485.5096 341.8124 L 487.7524 341.0459 L 492.0572 341.1094 L 496.1967 342.1641 L 499.443 343.8813 L 506.2662 345.5817 L 507.1594 347.3052 L 507.7263 350.8672 L 507.5105 359.5082 L 506.9988 361.4516 L 503.0152 372.4821 L 501.6353 374.5409 L 494.4656 375.4869 L 492.6291 376.1037 L 490.7931 376.1095 L 488.6105 375.2732 L 486.0816 371.4615 L 484.4209 367.0325 L 483.2719 361.9934 L 482.4693 356.4183 L 482.1832 351.9854 L 482.6949 348.2386 Z M 460.8196 336.0212 L 463.4485 335.1854 L 466.138 335.4159 L 472.6654 338.0897 L 475.5905 339.3864 L 476.7345 341.3745 L 477.0203 344.1238 L 476.2729 353.0632 L 475.1892 357.191 L 473.8696 358.4131 L 472.0883 358.6436 L 470.2569 357.9575 L 467.6833 354.9772 L 463.2179 348.4638 L 461.7326 345.8064 L 460.7893 343.3569 L 460.1874 338.1994 L 460.8196 336.0212 Z" fill="#FFF" fill-opacity="1" stroke="#666" stroke-width="1" paint-order="fill" stroke-opacity="1" stroke-dasharray="" stroke-linecap="butt" stroke-linejoin="miter" stroke-miterlimit="10" transform="matrix(1,0,0,1,0,0)" clip-path="none"></path><path d="M 141.1309 475.8204 L 143.0526 475.4677 L 143.2683 477.4043 L 145.0644 477.1094 L 145.9828 475.6183 L 147.8542 476.8491 L 147.1267 477.5025 L 146.309 477.323 L 146.4995 479.0455 L 147.3021 478.7742 L 147.829 480.641 L 148.6972 481.1554 L 148.4211 480.1382 L 149.3341 480.2191 L 152.43 478.8839 L 153.0972 478.6351 L 152.9969 479.8779 L 153.8049 480.8898 L 153.6793 482.6643 L 152.6656 486.7748 L 152.5303 489.1507 L 151.6473 491.9664 L 151.2911 494.4357 L 151.4365 495.667 L 154.8182 497.0667 L 154.7229 498.7088 L 156.3082 498.9922 L 156.8654 497.8586 L 157.061 499.6861 L 157.5828 500.3106 L 158.6163 499.1135 L 161.4462 498.4023 L 162.7103 498.4139 L 166.8296 497.8586 L 167.2009 499.0038 L 168.4705 498.4947 L 168.4452 497.6566 L 171.4808 497.1648 L 171.8319 497.9804 L 172.5244 497.4829 L 175.3893 498.385 L 176.3575 497.7143 L 176.3225 498.8012 L 177.3611 498.4832 L 177.958 496.8468 L 177.0248 495.0545 L 176.1619 495.3547 L 174.4612 494.262 L 174.4359 492.666 L 175.2789 492.2383 L 178.54 487.2949 L 179.9701 489.0757 L 180.2458 490.3363 L 182.3533 489.5611 L 183.6629 489.5963 L 186.1362 490.4229 L 185.3788 494.2562 L 184.8216 494.875 L 183.2713 498.2926 L 182.3132 499.5302 L 182.3984 500.3972 L 183.2515 501.2647 L 184.9522 499.3103 L 186.4174 499.4898 L 186.8941 498.6511 L 189.2823 498.7781 L 189.8391 500.1547 L 190.8174 499.1539 L 193.2861 499.3853 L 193.1857 497.6277 L 192.7141 496.471 L 192.8646 495.0545 L 191.9011 493.6028 L 192.4932 490.5903 L 194.0035 491.313 L 193.6123 492.5217 L 196.3816 493.9555 L 197.4855 495.118 L 198.8401 495.2277 L 198.7099 493.9555 L 198.8751 490.9026 L 199.402 490.2607 L 201.7152 490.4344 L 202.543 491.8567 L 204.1135 492.961 L 205.3375 492.7531 L 209.6022 492.6141 L 210.0688 492.042 L 212.6176 491.6951 L 217.1984 490.4575 L 218.4629 489.7868 L 221.0319 486.7055 L 222.7828 485.2312 L 224.3483 487.139 L 226.9321 486.283 L 227.0324 487.5263 L 228.2568 488.0638 L 229.155 487.9252 L 229.9778 490.446 L 230.5746 490.255 L 230.9059 491.8105 L 230.2488 491.4348 L 231.3072 495.2623 L 234.4131 495.4303 L 234.6538 496.1876 L 235.7577 496.5576 L 236.9017 496.1299 L 237.0471 496.7371 L 238.6374 497.0147 L 238.3617 499.2006 L 239.4003 499.2179 L 239.8969 499.9464 L 240.8199 499.8309 L 241.4273 501.9128 L 243.0277 501.4153 L 243.2233 502.6933 L 244.1013 502.5258 L 244.1868 501.6756 L 245.2503 501.6468 L 245.4459 502.2251 L 246.3892 501.9186 L 246.4996 500.0445 L 247.0164 500.0157 L 247.3274 498.7377 L 246.9864 495.3085 L 246.4946 495.2566 L 246.5447 491.8971 L 248.7474 491.1225 L 248.6973 492.834 L 249.2241 492.8282 L 250.022 495.3374 L 251.2111 495.9562 L 251.813 495.5573 L 251.9133 494.2043 L 252.9169 494.1927 L 253.0273 495.1122 L 255.5609 494.8692 L 255.842 495.6266 L 257.8337 494.6898 L 258.3356 495.7021 L 259.931 495.7137 L 260.543 495.1469 L 261.7924 496.4133 L 263.077 496.3031 L 263.7894 496.7833 L 265.0636 495.91 L 266.3833 495.6381 L 267.738 493.701 L 268.8317 494.5396 L 269.2684 493.6664 L 271.0244 495.8811 L 271.6515 499.738 L 272.3942 501.0915 L 272.6501 503.4049 L 273.4025 506.3024 L 274.8326 506.441 L 275.891 507.7656 L 276.463 507.8695 L 278.5502 509.657 L 280.2362 510.1487 L 279.9803 511.2823 L 280.4469 512.3005 L 280.4718 514.9208 L 280.1156 515.7479 L 280.1358 517.4604 L 280.8836 517.5936 L 280.6927 519.6414 L 281.0189 521.082 L 280.7829 523.2342 L 281.2145 525.0106 L 281.405 527.3659 L 279.1023 527.337 L 279.1723 528.8411 L 280.798 531.8271 L 282.178 532.3598 L 282.178 533.7719 L 283.668 533.7484 L 283.7885 534.7554 L 285.5694 534.6746 L 285.7101 532.1225 L 286.5531 531.6943 L 288.1734 531.8796 L 287.9677 533.7657 L 286.9042 533.656 L 287.0147 534.958 L 288.3841 537.0356 L 291.1137 537.7939 L 291.7709 537.6727 L 292.2577 538.5464 L 292.1173 540.5374 L 293.6174 540.433 L 294.0638 538.6157 L 296.0356 539.1484 L 300.0195 539.4318 L 301.6853 544.8553 L 303.0501 545.7989 L 303.5167 545.4577 L 305.3177 548.948 L 310.1393 559.4564 L 315.0813 569.1449 L 296.1713 581.6857 L 289.182 587.5543 L 272.9059 606.1105 L 270.1763 607.3273 L 267.402 608 L 260.2121 607.8378 L 247.3375 606.684 L 241.4222 607.1305 L 240.3234 597.7529 L 239.8969 597.1851 L 239.9871 595.5044 L 239.2596 595.2321 L 239.034 593.32 L 238.5422 593.2271 L 238.2513 591.6913 L 239.1845 590.4109 L 238.6825 589.0204 L 239.8669 588.1279 L 239.7814 586.4073 L 240.4789 585.0687 L 239.8669 583.8119 L 240.2682 583.2903 L 239.6562 581.4711 L 240.2682 580.7296 L 239.0842 579.4493 L 238.6024 580.1388 L 236.6206 577.8682 L 234.8343 575.1107 L 230.6349 572.5909 L 230.038 571.9423 L 227.9407 570.9233 L 226.1392 569.3999 L 225.5575 565.5892 L 224.9906 563.5505 L 224.1978 562.1783 L 223.9419 560.1281 L 223.37 559.2192 L 222.9283 559.6999 L 220.9767 555.3805 L 219.4362 554.9114 L 216.481 554.923 L 214.5194 556.1793 L 214.183 557.4009 L 214.5995 560.8349 L 213.3855 560.9619 L 211.539 558.3161 L 211.2229 557.2388 L 210.7011 558.2578 L 209.5622 558.229 L 209.3565 559.3756 L 208.5084 560.1517 L 207.2541 560.4702 L 205.3426 561.6048 L 204.0131 560.3254 L 203.9428 559.1672 L 203.2856 559.7114 L 201.2886 560.0357 L 200.3154 561.0259 L 200.2952 559.4102 L 198.5392 559.109 L 197.4104 558.2578 L 194.3196 558.0149 L 193.0551 559.2423 L 192.363 558.5244 L 191.3995 559.0455 L 189.8791 559.057 L 188.3289 558.4027 L 186.849 558.2694 L 184.6112 554.8421 L 185.6296 553.6494 L 187.5111 553.8288 L 187.9878 553.4348 L 187.7969 551.4899 L 188.5746 543.2232 L 189.3021 540.6476 L 190.0798 538.865 L 191.9011 536.0983 L 191.9011 533.7137 L 191.4749 534.7323 L 190.7622 534.4258 L 190.2757 532.9328 L 190.8878 532.2496 L 189.8041 530.8148 L 189.217 531.3527 L 188.3891 530.988 L 185.8454 530.6584 L 184.8018 531.1559 L 185.5542 529.9872 L 185.705 527.3076 L 186.8941 525.3984 L 186.0309 524.004 L 185.6346 524.5073 L 183.7181 523.3733 L 183.1461 522.1352 L 182.3331 523.4021 L 180.1257 524.4034 L 179.2174 523.9579 L 177.5617 521.7128 L 177.5718 520.6658 L 171.3502 524.6868 L 166.4886 524.6753 L 164.1505 526.3992 L 164.567 527.2672 L 164.0452 527.5511 L 164.7023 529.9583 L 162.6403 531.0111 L 159.1832 533.1816 L 159.9558 536.0228 L 158.5864 535.6759 L 158.0144 534.5933 L 156.7297 535.0451 L 157.3771 535.9304 L 156.8452 536.4106 L 156.454 538.1009 L 155.912 538.3901 L 156.4136 539.2003 L 158.0995 538.5118 L 158.5412 540.6707 L 155.9921 541.4579 L 155.5356 539.2643 L 153.1575 534.4027 L 147.6785 531.804 L 147.5082 530.9072 L 146.2437 531.486 L 144.8136 533.3317 L 143.5545 535.4848 L 142.5058 533.9803 L 140.3634 537.7997 L 139.0336 537.2151 L 139.6961 535.7798 L 138.3967 534.333 L 139.5908 532.9501 L 138.3866 532.5912 L 138.6976 531.4335 L 139.7362 529.6687 L 140.7445 529.5821 L 141.5023 526.9319 L 142.2749 527.2903 L 142.6664 526.1851 L 143.7451 525.9595 L 144.6432 523.865 L 145.2001 523.8073 L 145.9676 522.575 L 147.1318 523.2693 L 147.7286 522.3494 L 146.2736 521.1806 L 147.8694 519.0169 L 148.1804 517.9001 L 147.3526 517.1596 L 148.7272 514.7587 L 147.6586 513.9662 L 148.7272 512.8442 L 149.6954 513.5558 L 149.4547 512.5377 L 150.2125 511.9766 L 149.3193 511.2535 L 150.0569 510.2296 L 149.0231 509.3043 L 148.6167 508.3382 L 146.3137 508.5811 L 145.3054 508.2227 L 145.3855 505.7414 L 144.1214 505.4176 L 140.0823 505.0009 L 139.7514 502.9536 L 138.8683 502.0514 L 139.6608 500.1547 L 139.716 498.9865 L 140.7647 498.2344 L 141.8184 498.3966 L 141.8433 497.1648 L 143.2384 497.6912 L 143.9406 496.6793 L 143.9608 495.5515 L 141.9436 495.4418 L 142.1746 493.3137 L 142.32 483.3292 L 142.6062 481.8723 L 141.402 480.2306 L 140.7495 478.6933 L 141.1609 478.5543 L 141.1309 475.8204 Z M 296.2817 604.8292 L 296.9738 605.038 L 296.3268 605.728 L 296.2817 604.8292 Z M 294.7614 600.3549 L 296.2615 600.4536 L 297.0893 601.4967 L 295.81 602.3315 L 293.6874 601.1373 L 293.6827 600.2856 L 294.7614 600.3549 Z M 289.1019 593.8531 L 290.0098 594.0845 L 289.0467 594.7683 L 289.1019 593.8531 Z" fill="#FFF" fill-opacity="1" stroke="#666" stroke-width="1" paint-order="fill" stroke-opacity="1" stroke-dasharray="" stroke-linecap="butt" stroke-linejoin="miter" stroke-miterlimit="10" transform="matrix(1,0,0,1,0,0)" clip-path="none"></path><path d="M 259.1786 373.5146 L 260.3926 376.4386 L 260.9544 376.5305 L 261.9479 378.751 L 261.8627 379.8471 L 262.7357 380.3316 L 263.3729 382.6907 L 263.8244 382.8408 L 264.5771 384.4671 L 263.8395 385.044 L 265.7611 387.1207 L 266.6943 389.1978 L 266.4536 389.6246 L 267.171 391.1879 L 266.7698 391.3957 L 267.7279 393.2246 L 267.4421 393.3747 L 268.4655 395.2555 L 269.7198 395.3248 L 268.852 396.3112 L 269.9757 398.256 L 270.7884 397.7652 L 271.1449 398.729 L 269.4138 400.6738 L 269.2182 400.0733 L 268.084 400.593 L 269.0977 404.1535 L 271.6414 403.4145 L 271.8922 404.3094 L 273.217 403.9052 L 275.2136 409.0993 L 276.5586 413.4802 L 276.0566 414.2014 L 275.3995 413.8382 L 274.2003 414.4324 L 273.789 416.447 L 272.986 416.9782 L 273.8189 418.2884 L 273.5732 419.0216 L 271.2402 419.7896 L 271.5711 421.094 L 269.8552 422.4219 L 266.248 423.4555 L 265.5306 421.7118 L 263.3228 422.8319 L 263.2376 429.9506 L 262.7209 432.3299 L 262.8461 436.551 L 262.5902 437.1457 L 262.801 438.9592 L 262.7407 444.377 L 262.5051 445.4918 L 264.9683 445.2431 L 266.0119 444.7811 L 266.5388 445.2026 L 264.9434 446.9704 L 264.3664 448.9287 L 261.5217 453.3996 L 260.4878 453.8851 L 260.232 454.5668 L 260.2771 456.7393 L 259.8808 459.9457 L 260.4478 461.2169 L 261.2355 460.8993 L 262.9865 461.1996 L 266.3584 463.1699 L 269.0678 463.4648 L 271.7569 462.5631 L 272.2084 463.3373 L 272.7403 466.1343 L 272.5797 468.4746 L 273.252 471.3759 L 273.3473 473.0287 L 273.0362 475.1501 L 273.1167 476.4969 L 274.1953 477.2999 L 273.6183 478.2945 L 272.6299 478.8319 L 273.0914 481.2021 L 273.1816 483.3004 L 271.9828 483.144 L 271.2701 483.8436 L 270.312 483.9013 L 270.6631 484.6009 L 269.0324 485.289 L 269.4088 486.451 L 269.3936 488.5729 L 270.5527 489.7348 L 270.7985 490.5268 L 270.4473 492.1632 L 269.2684 493.6664 L 268.8317 494.5396 L 267.738 493.701 L 266.3833 495.6381 L 265.0636 495.91 L 263.7894 496.7833 L 263.077 496.3031 L 261.7924 496.4133 L 260.543 495.1469 L 259.931 495.7137 L 258.3356 495.7021 L 257.8337 494.6898 L 255.842 495.6266 L 255.5609 494.8692 L 253.0273 495.1122 L 252.9169 494.1927 L 251.9133 494.2043 L 251.813 495.5573 L 251.2111 495.9562 L 250.022 495.3374 L 249.2241 492.8282 L 248.6973 492.834 L 248.7474 491.1225 L 246.5447 491.8971 L 246.4946 495.2566 L 246.9864 495.3085 L 247.3274 498.7377 L 247.0164 500.0157 L 246.4996 500.0445 L 246.3892 501.9186 L 245.4459 502.2251 L 245.2503 501.6468 L 244.1868 501.6756 L 244.1013 502.5258 L 243.2233 502.6933 L 243.0277 501.4153 L 241.4273 501.9128 L 240.8199 499.8309 L 239.8969 499.9464 L 239.4003 499.2179 L 238.3617 499.2006 L 238.6374 497.0147 L 237.0471 496.7371 L 236.9017 496.1299 L 235.7577 496.5576 L 234.6538 496.1876 L 234.4131 495.4303 L 231.3072 495.2623 L 230.2488 491.4348 L 230.9059 491.8105 L 230.5746 490.255 L 229.9778 490.446 L 229.155 487.9252 L 228.2568 488.0638 L 227.0324 487.5263 L 226.9321 486.283 L 224.3483 487.139 L 222.7828 485.2312 L 221.0319 486.7055 L 218.4629 489.7868 L 217.1984 490.4575 L 212.6176 491.6951 L 210.0688 492.042 L 209.6022 492.6141 L 205.3375 492.7531 L 204.1135 492.961 L 202.543 491.8567 L 201.7152 490.4344 L 199.402 490.2607 L 198.8751 490.9026 L 198.7099 493.9555 L 198.8401 495.2277 L 197.4855 495.118 L 196.3816 493.9555 L 193.6123 492.5217 L 194.0035 491.313 L 192.4932 490.5903 L 191.9011 493.6028 L 192.8646 495.0545 L 192.7141 496.471 L 193.1857 497.6277 L 193.2861 499.3853 L 190.8174 499.1539 L 189.8391 500.1547 L 189.2823 498.7781 L 186.8941 498.6511 L 186.4174 499.4898 L 184.9522 499.3103 L 183.2515 501.2647 L 182.3984 500.3972 L 182.3132 499.5302 L 183.2713 498.2926 L 184.8216 494.875 L 185.3788 494.2562 L 186.1362 490.4229 L 183.6629 489.5963 L 182.3533 489.5611 L 180.2458 490.3363 L 179.9701 489.0757 L 178.54 487.2949 L 175.2789 492.2383 L 174.4359 492.666 L 174.4612 494.262 L 176.1619 495.3547 L 177.0248 495.0545 L 177.958 496.8468 L 177.3611 498.4832 L 176.3225 498.8012 L 176.3575 497.7143 L 175.3893 498.385 L 172.5244 497.4829 L 171.8319 497.9804 L 171.4808 497.1648 L 168.4452 497.6566 L 168.4705 498.4947 L 167.2009 499.0038 L 166.8296 497.8586 L 162.7103 498.4139 L 161.4462 498.4023 L 158.6163 499.1135 L 157.5828 500.3106 L 157.061 499.6861 L 156.8654 497.8586 L 156.3082 498.9922 L 154.7229 498.7088 L 154.8182 497.0667 L 151.4365 495.667 L 151.2911 494.4357 L 151.6473 491.9664 L 152.5303 489.1507 L 152.6656 486.7748 L 153.6793 482.6643 L 153.8049 480.8898 L 152.9969 479.8779 L 153.0972 478.6351 L 152.43 478.8839 L 152.3798 477.9764 L 154.2964 477.3581 L 154.8182 474.5371 L 155.3952 472.5548 L 156.8903 472.8439 L 158.0144 472.3527 L 157.6932 470.9482 L 158.8924 469.4975 L 157.8686 466.6197 L 159.1634 466.2266 L 159.4192 466.8103 L 160.7238 466.6486 L 161.5314 469.0178 L 163.0066 468.5843 L 162.841 470.2375 L 163.7843 471.5492 L 164.0852 472.8324 L 165.8913 473.4853 L 168.4051 473.52 L 169.9154 473.1731 L 169.9655 472.3238 L 170.8587 471.9827 L 170.653 471.1445 L 171.4458 471.0695 L 171.6262 470.0581 L 174.1299 470.1216 L 174.0797 469.1511 L 176.0717 468.9081 L 177.4914 468.4457 L 176.8743 467.111 L 176.7942 464.3025 L 178.0987 464.8688 L 178.2842 461.0552 L 178.1185 460.5813 L 178.4498 454.3474 L 179.8796 454.2777 L 179.9149 448.0621 L 179.1373 446.254 L 175.8808 442.1877 L 173.1765 439.641 L 174.6117 438.4857 L 175.2136 439.4326 L 177.1002 439.1901 L 177.3059 436.7762 L 178.3744 436.8974 L 178.5 435.8351 L 177.5917 433.2075 L 176.9046 432.4338 L 175.9111 432.3183 L 177.0298 430.3489 L 174.8823 428.7496 L 174.7621 426.9193 L 173.7636 426.4343 L 173.297 427.7449 L 172.0477 425.828 L 171.5309 424.5347 L 172.7752 423.6287 L 173.5327 422.4797 L 173.3219 421.6713 L 174.14 420.7937 L 175.8458 420.8572 L 176.4279 422.1275 L 175.8758 423.7903 L 176.4629 424.8061 L 177.7974 424.6675 L 178.811 426.0994 L 179.0517 424.3499 L 181.4252 424.0328 L 181.5154 424.6675 L 184.9674 424.9331 L 184.892 423.8077 L 185.8703 424.3557 L 187.7367 424.3037 L 188.414 423.161 L 187.9225 423.1321 L 187.8623 419.8415 L 186.4224 419.5875 L 186.1716 418.1382 L 185.0324 415.3677 L 184.5759 415.5236 L 182.9455 414.5594 L 181.0188 412.4005 L 179.4483 413.3127 L 178.6454 412.9663 L 178.1839 410.5596 L 178.7006 409.2379 L 177.5318 406.9062 L 178.2239 406.6059 L 178.3444 405.4343 L 177.6671 404.1131 L 178.6205 404.5514 L 179.7843 403.5357 L 179.6789 402.5258 L 181.5554 400.3505 L 182.9404 398.0539 L 183.5824 399.0812 L 184.2146 398.5153 L 184.7967 399.5253 L 185.9609 400.0675 L 187.6014 402.174 L 188.3891 402.2029 L 189.4728 403.5415 L 189.9242 402.8087 L 190.4212 404.2401 L 191.3042 404.7189 L 193.4113 404.4302 L 193.5167 405.29 L 194.4499 405.0191 L 194.9468 406.7041 L 196.2462 406.0579 L 196.8583 407.8122 L 197.4754 407.6274 L 197.6911 408.5392 L 198.3032 408.378 L 198.3836 407.0852 L 198.8705 407.0909 L 198.8903 404.3036 L 198.0073 404.332 L 198.0275 402.9068 L 199.8939 403.5357 L 202.0313 403.1031 L 201.9259 401.741 L 202.5029 401.7295 L 202.3773 399.7967 L 203.8627 400.0329 L 203.8374 399.4387 L 205.2773 399.687 L 204.7356 397.0151 L 205.5382 396.4613 L 205.2174 395.1978 L 205.9748 394.6498 L 206.8477 395.5437 L 208.6441 394.7999 L 208.6589 392.1054 L 207.9217 392.1054 L 207.9314 390.8246 L 207.3898 390.5994 L 207.2191 388.4592 L 207.8665 388.5054 L 207.9769 382.8754 L 212.5776 385.4251 L 214.3588 384.75 L 215.0711 384.0981 L 214.6096 385.592 L 216.712 385.3673 L 217.4745 386.6246 L 221.8998 385.3269 L 224.5839 384.9863 L 224.1426 387.3689 L 222.9936 391.0724 L 222.3263 394.2052 L 222.1708 396.5421 L 223.1791 396.5075 L 226.7116 395.4634 L 227.4088 394.6729 L 227.775 391.4304 L 228.8638 391.1705 L 230.5548 391.5747 L 230.8406 389.6997 L 228.6833 389.3821 L 230.8958 388.9957 L 231.4429 387.3574 L 233.8913 388.0902 L 235.4315 388.2283 L 235.4016 390.7668 L 236.7158 390.7207 L 236.3597 388.2687 L 237.4433 386.7516 L 238.1459 387.0572 L 238.2062 386.2844 L 243.7101 387.7957 L 246.0532 384.571 L 244.8591 383.2849 L 243.9959 383.5789 L 243.0981 381.8025 L 242.275 382.5406 L 242.0595 381.7332 L 242.8924 380.5794 L 242.546 378.6476 L 243.4543 379.478 L 244.7335 379.3337 L 244.4827 378.699 L 245.3156 378.0764 L 245.9276 378.6245 L 248.9232 377.8512 L 251.0905 377.0958 L 256.4241 374.8349 L 257.0863 376.0979 L 258.1249 375.6538 L 258.6867 373.7739 L 259.1786 373.5146 Z" fill="#FFF" fill-opacity="1" stroke="#666" stroke-width="1" paint-order="fill" stroke-opacity="1" stroke-dasharray="" stroke-linecap="butt" stroke-linejoin="miter" stroke-miterlimit="10" transform="matrix(1,0,0,1,0,0)" clip-path="none"></path><path d="M 197.7915 318.8012 L 197.8568 321.0073 L 197.0842 323.1383 L 198.4389 323.8528 L 199.2717 321.7386 L 200.4308 323.1441 L 200.9927 322.3954 L 202.814 324.9128 L 202.9493 326.9923 L 203.7973 327.2344 L 203.2755 328.6403 L 204.1687 329.2509 L 205.1921 328.3232 L 206.1004 329.4063 L 206.8329 328.8015 L 207.0285 329.9769 L 207.8214 329.4987 L 208.6842 330.5413 L 209.5921 330.5014 L 210.2897 329.3317 L 211.9655 329.8788 L 212.0908 330.9219 L 213.1344 331.0312 L 213.0694 329.9885 L 214.4292 329.1012 L 215.6182 328.8246 L 215.5179 328.1909 L 216.782 326.7792 L 217.5449 328.0182 L 218.0263 327.7646 L 218.0064 326.4106 L 219.0399 326.8889 L 219.6018 329.5275 L 222.1607 328.5941 L 221.7793 328.0586 L 223.0939 327.2748 L 222.9784 326.5545 L 225.0206 325.9843 L 224.9805 325.5061 L 227.1782 325.5118 L 228.0861 325.8058 L 229.7316 327.1136 L 231.292 326.9062 L 231.3573 327.5572 L 234.0368 327.4417 L 231.558 330.0405 L 231.0513 332.1893 L 229.526 332.898 L 228.8941 335.923 L 229.4206 336.3267 L 231.7738 335.9923 L 232.4161 338.1012 L 232.9177 337.3006 L 233.5348 337.8938 L 234.0267 339.7439 L 235.1103 340.9078 L 235.4164 342.7521 L 234.9046 343.0114 L 235.4918 344.7229 L 235.2157 345.9565 L 236.0186 346.9477 L 236.5755 348.4234 L 235.9183 349.5358 L 237.5238 351.3916 L 237.8248 352.441 L 237.2376 352.9366 L 237.8598 354.0837 L 238.5624 354.1126 L 240.3584 356.4933 L 242.4106 358.7706 L 244.809 358.3785 L 245.998 357.4446 L 247.7291 355.3809 L 247.8391 354.4701 L 248.7074 354.1992 L 249.6705 355.0003 L 250.7744 357.1102 L 253.6595 361.2668 L 254.4621 363.2675 L 256.4541 366.8251 L 257.0813 368.3706 L 257.2768 369.9911 L 259.1786 373.5146 L 258.6867 373.7739 L 258.1249 375.6538 L 257.0863 376.0979 L 256.4241 374.8349 L 251.0905 377.0958 L 248.9232 377.8512 L 245.9276 378.6245 L 245.3156 378.0764 L 244.4827 378.699 L 244.7335 379.3337 L 243.4543 379.478 L 242.546 378.6476 L 242.8924 380.5794 L 242.0595 381.7332 L 242.275 382.5406 L 243.0981 381.8025 L 243.9959 383.5789 L 244.8591 383.2849 L 246.0532 384.571 L 243.7101 387.7957 L 238.2062 386.2844 L 238.1459 387.0572 L 237.4433 386.7516 L 236.3597 388.2687 L 236.7158 390.7207 L 235.4016 390.7668 L 235.4315 388.2283 L 233.8913 388.0902 L 231.4429 387.3574 L 230.8958 388.9957 L 228.6833 389.3821 L 230.8406 389.6997 L 230.5548 391.5747 L 228.8638 391.1705 L 227.775 391.4304 L 227.4088 394.6729 L 226.7116 395.4634 L 223.1791 396.5075 L 222.1708 396.5421 L 222.3263 394.2052 L 222.9936 391.0724 L 224.1426 387.3689 L 224.5839 384.9863 L 221.8998 385.3269 L 217.4745 386.6246 L 216.712 385.3673 L 214.6096 385.592 L 215.0711 384.0981 L 214.3588 384.75 L 212.5776 385.4251 L 207.9769 382.8754 L 207.8665 388.5054 L 207.2191 388.4592 L 207.3898 390.5994 L 207.9314 390.8246 L 207.9217 392.1054 L 208.6589 392.1054 L 208.6441 394.7999 L 206.8477 395.5437 L 205.9748 394.6498 L 205.2174 395.1978 L 205.5382 396.4613 L 204.7356 397.0151 L 205.2773 399.687 L 203.8374 399.4387 L 203.8627 400.0329 L 202.3773 399.7967 L 202.5029 401.7295 L 201.9259 401.741 L 202.0313 403.1031 L 199.8939 403.5357 L 198.0275 402.9068 L 198.0073 404.332 L 198.8903 404.3036 L 198.8705 407.0909 L 198.3836 407.0852 L 198.3032 408.378 L 197.6911 408.5392 L 197.4754 407.6274 L 196.8583 407.8122 L 196.2462 406.0579 L 194.9468 406.7041 L 194.4499 405.0191 L 193.5167 405.29 L 193.4113 404.4302 L 191.3042 404.7189 L 190.4212 404.2401 L 189.9242 402.8087 L 189.4728 403.5415 L 188.3891 402.2029 L 187.6014 402.174 L 185.9609 400.0675 L 184.7967 399.5253 L 184.2146 398.5153 L 183.5824 399.0812 L 182.9404 398.0539 L 181.5554 400.3505 L 179.6789 402.5258 L 179.7843 403.5357 L 178.6205 404.5514 L 177.6671 404.1131 L 178.3444 405.4343 L 178.2239 406.6059 L 177.5318 406.9062 L 178.7006 409.2379 L 178.1839 410.5596 L 178.6454 412.9663 L 179.4483 413.3127 L 181.0188 412.4005 L 182.9455 414.5594 L 184.5759 415.5236 L 185.0324 415.3677 L 186.1716 418.1382 L 186.4224 419.5875 L 187.8623 419.8415 L 187.9225 423.1321 L 188.414 423.161 L 187.7367 424.3037 L 185.8703 424.3557 L 184.892 423.8077 L 184.9674 424.9331 L 181.5154 424.6675 L 181.4252 424.0328 L 179.0517 424.3499 L 178.811 426.0994 L 177.7974 424.6675 L 176.4629 424.8061 L 175.8758 423.7903 L 176.4279 422.1275 L 175.8458 420.8572 L 174.14 420.7937 L 173.3219 421.6713 L 173.5327 422.4797 L 172.7752 423.6287 L 171.5309 424.5347 L 172.0477 425.828 L 173.297 427.7449 L 173.7636 426.4343 L 174.7621 426.9193 L 174.8823 428.7496 L 177.0298 430.3489 L 175.9111 432.3183 L 176.9046 432.4338 L 177.5917 433.2075 L 178.5 435.8351 L 178.3744 436.8974 L 177.3059 436.7762 L 177.1002 439.1901 L 175.2136 439.4326 L 174.6117 438.4857 L 173.1765 439.641 L 175.8808 442.1877 L 179.1373 446.254 L 179.9149 448.0621 L 179.8796 454.2777 L 178.4498 454.3474 L 178.1185 460.5813 L 178.2842 461.0552 L 178.0987 464.8688 L 176.7942 464.3025 L 176.8743 467.111 L 177.4914 468.4457 L 176.0717 468.9081 L 174.0797 469.1511 L 174.1299 470.1216 L 171.6262 470.0581 L 171.4458 471.0695 L 170.653 471.1445 L 170.8587 471.9827 L 169.9655 472.3238 L 169.9154 473.1731 L 168.4051 473.52 L 165.8913 473.4853 L 164.0852 472.8324 L 163.7843 471.5492 L 162.841 470.2375 L 163.0066 468.5843 L 161.5314 469.0178 L 160.7238 466.6486 L 159.4192 466.8103 L 159.1634 466.2266 L 157.8686 466.6197 L 158.8924 469.4975 L 157.6932 470.9482 L 158.0144 472.3527 L 156.8903 472.8439 L 155.3952 472.5548 L 154.8182 474.5371 L 154.2964 477.3581 L 152.3798 477.9764 L 152.43 478.8839 L 149.3341 480.2191 L 148.4211 480.1382 L 148.6972 481.1554 L 147.829 480.641 L 147.3021 478.7742 L 146.4995 479.0455 L 146.309 477.323 L 147.1267 477.5025 L 147.8542 476.8491 L 145.9828 475.6183 L 145.0644 477.1094 L 143.2683 477.4043 L 143.0526 475.4677 L 141.1309 475.8204 L 140.6394 475.7915 L 140.4334 473.647 L 139.6157 473.5488 L 139.3097 472.0173 L 140.4186 471.7806 L 139.6409 469.7925 L 140.0372 469.2204 L 139.2194 467.1283 L 139.8365 465.3254 L 141.3619 465.1691 L 142.4957 464.4526 L 142.5156 462.9736 L 143.163 462.6786 L 142.6112 461.3093 L 142.0742 461.4825 L 141.2764 457.0915 L 140.3634 455.7972 L 140.4485 454.1911 L 138.8882 454.5322 L 138.6424 453.5155 L 139.4403 453.3014 L 139.4551 450.2629 L 139.0838 448.3162 L 139.3999 447.9871 L 138.6976 446.8607 L 138.5269 444.9832 L 136.4848 444.9601 L 136.1737 444.1691 L 131.5579 444.1403 L 129.0344 443.9261 L 129.6262 442.4071 L 129.4256 441.9164 L 128.0507 441.4891 L 127.2633 438.1624 L 125.0605 437.3536 L 124.6593 437.9199 L 123.9516 437.4984 L 123.8112 439.8488 L 124.6892 440.3569 L 124.2576 443.4238 L 119.3257 443.6779 L 119.125 444.5098 L 120.6905 447.0859 L 119.968 447.5767 L 118.4177 447.0859 L 117.5495 446.2424 L 115.9642 446.1038 L 115.6629 446.8953 L 112.7579 445.7574 L 110.199 446.8318 L 109.8129 445.8267 L 109.853 443.7587 L 106.717 443.4931 L 106.4262 442.0838 L 106.7073 439.641 L 106.9379 433.7964 L 106.1303 432.8553 L 105.1516 429.9794 L 105.2169 428.7092 L 104.5796 427.693 L 104.2639 425.9781 L 104.2837 423.6864 L 104.7503 421.5616 L 105.8142 417.9823 L 106.0852 414.2072 L 107.8913 414.1264 L 107.9313 413.1799 L 106.8275 411.4483 L 106.988 410.6982 L 105.9697 410.0804 L 105.0314 410.2189 L 104.5699 408.2683 L 103.4007 406.5886 L 103.6414 405.4632 L 103.0546 405.1519 L 102.9842 406.5367 L 101.705 406.6464 L 98.3132 405.8385 L 98.6344 404.5745 L 97.5655 404.8228 L 97.7914 403.8244 L 96.5421 403.6396 L 96.3162 404.332 L 95.3328 404.3036 L 95.2477 405.1346 L 93.8627 404.9383 L 93.2308 403.6512 L 91.7054 403.657 L 90.6365 402.4339 L 91.0382 399.6927 L 91.871 399.3059 L 92.5985 397.7768 L 93.9431 396.698 L 95.6139 394.3091 L 95.7644 392.3417 L 96.2462 390.7264 L 97.716 388.644 L 99.4723 387.086 L 105.9394 386.4461 L 108.172 387.3343 L 112.3314 386.3826 L 117.1731 383.8734 L 125.2211 385.3904 L 136.505 388.5401 L 139.1541 387.8304 L 144.9341 387.7149 L 148.983 387.3863 L 150.5434 385.3616 L 150.3478 384.329 L 151.5769 384.1789 L 151.9533 382.7369 L 152.5505 382.6849 L 152.696 383.9479 L 154.2513 383.4865 L 155.3451 384.3925 L 155.3952 385.8114 L 156.2581 386.0361 L 157.402 385.0787 L 158.4709 381.8891 L 157.3017 381.214 L 157.2768 379.824 L 158.6416 378.9762 L 158.7015 377.7993 L 160.0414 377.5168 L 160.4527 379.3914 L 162.4595 379.4203 L 163.0167 378.3993 L 164.8881 378.2318 L 165.4551 379.3337 L 166.1523 379.2817 L 166.027 380.4124 L 167.2561 380.3605 L 166.7693 378.636 L 168.3099 378.0476 L 168.9569 376.3346 L 170.1059 375.6711 L 169.7548 374.6679 L 170.0207 373.6642 L 168.9067 374.1026 L 168.701 373.3587 L 170.2315 372.7414 L 169.544 369.9622 L 168.43 370.3024 L 168.4852 368.8147 L 169.5289 368.4572 L 169.0976 367.1191 L 168.0789 365.5568 L 168.0136 364.5993 L 169.5891 363.9305 L 169.3733 363.1924 L 167.3817 363.9132 L 167.1208 362.9504 L 168.1792 362.4375 L 167.6978 361.0999 L 167.7931 359.8657 L 168.4954 359.7565 L 168.36 358.9664 L 167.6123 358.7533 L 167.4268 357.9344 L 166.4132 358.1018 L 166.3478 357.0351 L 167.2861 357.3522 L 166.7794 355.1961 L 165.9866 349.9679 L 164.913 343.8125 L 164.9733 342.7059 L 165.6658 342.5562 L 165.6405 340.8674 L 166.5539 340.8039 L 166.629 339.8358 L 165.6156 339.8185 L 164.9029 338.989 L 164.4114 337.4791 L 165.3695 337.1851 L 165.2494 335.3644 L 165.5301 333.4802 L 164.5569 333.9123 L 163.1217 333.1862 L 164.3162 333.3128 L 164.6673 327.7992 L 165.1339 323.006 L 167.1006 322.9141 L 168.5607 322.4127 L 171.3303 321.9229 L 171.9575 321.2604 L 172.8203 319.2501 L 171.6713 318.5072 L 172.8755 313.5306 L 173.8239 312.0564 L 173.6734 311.5497 L 174.8372 311.4573 L 175.9061 313.2371 L 176.739 313.8188 L 177.9681 318.9912 L 180.3613 320.2408 L 179.7792 319.4344 L 180.803 318.7723 L 182.4085 316.3473 L 183.8083 314.6541 L 185.3586 314.7229 L 185.7451 314.2278 L 187.4256 315.0684 L 187.1748 315.6905 L 188.2184 316.6066 L 189.6034 317.1364 L 189.829 316.5316 L 192.1219 317.7874 L 191.9664 318.346 L 193.2511 318.755 L 193.8732 318.3114 L 193.9133 319.3656 L 196.5822 319.3829 L 197.7915 318.8012 Z" fill="#FFF" fill-opacity="1" stroke="#666" stroke-width="1" paint-order="fill" stroke-opacity="1" stroke-dasharray="" stroke-linecap="butt" stroke-linejoin="miter" stroke-miterlimit="10" transform="matrix(1,0,0,1,0,0)" clip-path="none"></path><path d="M 348.1755 452.7067 L 350.4385 452.1635 L 352.6712 452.1519 L 353.1677 451.5163 L 356.911 451.5741 L 357.2369 450.9274 L 360.2974 451.3662 L 364.1409 451.3085 L 365.2246 453.9832 L 366.2531 455.4334 L 375.6807 455.1101 L 378.5102 455.1563 L 381.6061 455.4161 L 383.9192 455.9478 L 385.2988 456.8028 L 385.7355 455.8549 L 388.9966 456.8143 L 390.6172 456.6522 L 392.3833 457.0395 L 394.7214 457.9638 L 396.9039 459.1368 L 399.5328 461.0841 L 406.4318 467.4112 L 407.1694 469.0063 L 408.5992 470.85 L 408.2181 471.7806 L 409.3469 472.7342 L 410.7016 472.7978 L 412.1865 475.0573 L 412.6834 474.5025 L 413.6769 474.6589 L 416.3108 476.3751 L 416.938 477.1209 L 416.903 478.5601 L 418.2076 479.9299 L 417.1737 480.7161 L 417.0986 481.5427 L 418.1119 481.4908 L 417.9564 482.2943 L 418.8896 482.4449 L 419.4518 481.5831 L 420.0938 483.0516 L 421.2681 483.6993 L 421.3933 484.8439 L 422.9941 485.098 L 422.9389 487.1679 L 424.1882 491.5733 L 423.8721 494.3429 L 423.4105 495.1584 L 423.1846 498.194 L 423.4203 500.2817 L 423.3553 502.6298 L 422.3467 506.5569 L 422.5874 509.1653 L 421.3081 509.3621 L 421.0725 511.7163 L 420.7563 511.8491 L 419.507 517.6976 L 419.9383 523.8765 L 428.7538 540.0279 L 423.4755 539.8547 L 404.6856 539.617 L 388.1287 539.2874 L 376.3028 540.3464 L 359.3089 545.6949 L 341.8088 553.2437 L 328.9494 559.9837 L 315.0813 569.1449 L 310.1393 559.4564 L 305.3177 548.948 L 303.5167 545.4577 L 303.0501 545.7989 L 301.6853 544.8553 L 300.0195 539.4318 L 296.0356 539.1484 L 294.0638 538.6157 L 293.6174 540.433 L 292.1173 540.5374 L 292.2577 538.5464 L 291.7709 537.6727 L 291.1137 537.7939 L 288.3841 537.0356 L 287.0147 534.958 L 286.9042 533.656 L 287.9677 533.7657 L 288.1734 531.8796 L 286.5531 531.6943 L 285.7101 532.1225 L 285.5694 534.6746 L 283.7885 534.7554 L 283.668 533.7484 L 282.178 533.7719 L 282.178 532.3598 L 280.798 531.8271 L 279.1723 528.8411 L 279.1023 527.337 L 281.405 527.3659 L 281.2145 525.0106 L 280.7829 523.2342 L 281.0189 521.082 L 280.6927 519.6414 L 280.8836 517.5936 L 280.1358 517.4604 L 280.1156 515.7479 L 280.4718 514.9208 L 280.4469 512.3005 L 279.9803 511.2823 L 280.2362 510.1487 L 278.5502 509.657 L 276.463 507.8695 L 275.891 507.7656 L 274.8326 506.441 L 273.4025 506.3024 L 272.6501 503.4049 L 272.3942 501.0915 L 271.6515 499.738 L 271.0244 495.8811 L 269.2684 493.6664 L 270.4473 492.1632 L 270.7985 490.5268 L 270.5527 489.7348 L 269.3936 488.5729 L 269.4088 486.451 L 269.0324 485.289 L 270.6631 484.6009 L 270.312 483.9013 L 271.2701 483.8436 L 271.9828 483.144 L 273.1816 483.3004 L 273.0914 481.2021 L 272.6299 478.8319 L 273.6183 478.2945 L 274.1953 477.2999 L 273.1167 476.4969 L 273.0362 475.1501 L 273.3473 473.0287 L 273.252 471.3759 L 272.5797 468.4746 L 272.7403 466.1343 L 272.2084 463.3373 L 271.7569 462.5631 L 277.7173 460.1708 L 284.586 457.5654 L 290.025 456.6118 L 291.4147 456.2076 L 295.3081 454.5495 L 297.9976 452.3078 L 298.7951 451.0544 L 299.9492 449.9569 L 301.3843 449.125 L 304.0886 448.322 L 308.288 448.3508 L 310.3251 447.6979 L 312.4373 446.1616 L 314.2134 445.4918 L 317.6453 445.1391 L 318.8293 444.7176 L 320.1738 445.7747 L 319.8379 447.0801 L 321.2727 452.7298 L 322.3365 452.7702 L 322.3213 452.1866 L 323.8467 450.6036 L 325.5875 449.6273 L 326.5009 449.7197 L 328.879 448.2411 L 330.2687 449.7717 L 330.7205 450.8523 L 329.993 450.6786 L 330.0781 452.2212 L 331.0063 452.0018 L 333.0686 453.8735 L 334.2775 454.4052 L 335.1959 453.9081 L 336.3749 454.4687 L 336.5405 455.2082 L 338.3669 454.6996 L 339.3903 455.2544 L 340.6197 457.5365 L 341.7936 457.2705 L 341.9791 455.266 L 343.0328 455.0985 L 342.9224 454.243 L 344.9346 454.0063 L 348.1755 452.7067 Z" fill="#FFF" fill-opacity="1" stroke="#666" stroke-width="1" paint-order="fill" stroke-opacity="1" stroke-dasharray="" stroke-linecap="butt" stroke-linejoin="miter" stroke-miterlimit="10" transform="matrix(1,0,0,1,0,0)" clip-path="none"></path><path d="M 494.2198 155.0223 L 498.936 197.0929 L 500.963 205.6127 L 501.6302 214.6517 L 500.1802 222.5142 L 496.6131 228.607 L 491.3701 232.1887 L 479.4687 239.0654 L 473.6036 242.7568 L 467.5025 244.9537 L 463.6795 245.5975 L 460.6287 245.661 L 457.3427 245.3329 L 451.8636 244.9937 L 447.3781 244.1026 L 443.349 243.1018 L 437.9256 241.066 L 417.811 231.43 L 405.6992 224.8189 L 388.7306 215.6346 L 384.3104 214.1176 L 372.7757 211.4683 L 368.1346 210.4796 L 365.2095 209.5663 L 362.0035 208.0088 L 339.9471 196.3577 L 312.342 175.5214 L 299.0058 167.8681 L 291.9968 167.5121 L 287.9276 168.0288 L 285.0176 170.2219 L 276.6286 185.7314 L 267.0206 176.8421 L 246.6403 155.3836 L 207.2191 105.1074 L 194.7562 89.1557 L 193.5769 88.4913 L 185.0728 86.6744 L 196.1611 73.1011 L 207.8113 57.1667 L 214.6045 50.0779 L 223.6157 44.3526 L 229.6667 41.2954 L 233.2891 39.212 L 238.151 36.1321 L 243.8353 33.7682 L 247.3826 32.8295 L 251.2562 32 L 254.3116 32.103 L 256.2935 32.5952 L 258.8924 34.0146 L 275.5752 46.1618 L 278.1338 48.429 L 281.2596 50.8569 L 284.9927 56.7433 L 286.3474 58.5755 L 288.6303 62.2525 L 290.8027 63.9366 L 292.5435 68.1231 L 290.5919 69.1142 L 294.2045 76.8021 L 295.9605 79.3691 L 298.0174 81.7753 L 303.0349 84.1647 L 304.6104 85.4311 L 306.7125 86.5484 L 309.8033 87.6088 L 314.374 88.09 L 318.3226 89.4021 L 322.2261 89.4767 L 327.4492 94.0789 L 328.1515 94.4744 L 332.3761 95.7524 L 332.9781 96.6521 L 336.9721 98.0224 L 337.2229 99.0771 L 340.6096 102.1267 L 341.287 101.926 L 346.2088 107.0623 L 351.0856 110.0378 L 356.0377 111.9817 L 356.3939 112.5148 L 358.707 113.6041 L 359.1585 111.7348 L 359.821 111.7637 L 363.072 113.0421 L 368.6965 116.173 L 370.8389 116.9472 L 374.2206 116.3279 L 400.4259 127.6889 L 437.4287 138.1862 L 462.6207 145.7139 L 494.2198 155.0223 Z M 423.3751 302.6585 L 420.5203 301.9445 L 418.1022 300.1998 L 416.8428 297.7757 L 413.3806 289.3762 L 411.0325 286.5499 L 409.6276 285.1974 L 404.9966 281.1976 L 390.1106 270.7123 L 373.6385 258.9125 L 359.3443 248.9334 L 355.3553 246.1956 L 348.8179 242.0957 L 343.8408 235.972 L 340.7049 231.9934 L 338.3618 229.4235 L 336.2446 227.3541 L 333.3945 225.2043 L 328.8238 222.2495 L 326.4006 219.7148 L 326.0292 218.3816 L 326.1195 216.2438 L 327.5997 214.5309 L 328.8541 214.0772 L 330.3694 214.2321 L 340.7601 216.2669 L 345.2457 217.8932 L 347.0467 219.2727 L 349.0185 226.0319 L 350.1072 228.7451 L 352.7062 232.3783 L 353.6195 233.1433 L 358.7622 235.0636 L 361.1104 235.6785 L 366.6796 238.2085 L 385.4746 246.0979 L 390.6923 246.9953 L 393.9036 247.9037 L 397.9176 249.9568 L 403.4716 253.5 L 405.4885 254.4661 L 408.4436 255.2081 L 410.1397 255.9789 L 414.3041 259.2748 L 416.8778 261.7657 L 419.9534 263.9001 L 421.6693 265.7126 L 423.9922 268.9979 L 426.6316 273.0945 L 427.7102 275.2987 L 428.2522 277.1054 L 428.4778 281.0653 L 429.5615 285.6122 L 429.7321 290.5219 L 429.5113 293.1413 L 430.56 302.5834 L 429.8126 304.023 L 427.7705 303.5453 L 425.7684 302.2437 L 423.3751 302.6585 Z M 590.512 250.2676 L 591.7213 249.1917 L 592.3636 250.1468 L 591.0692 250.8657 L 590.512 250.2676 Z M 431.6436 280.1501 L 431.2074 276.7719 L 430.1637 274.0558 L 428.4078 270.2408 L 428.7888 268.8425 L 429.8325 268.5548 L 432.251 268.4855 L 437.2984 268.7906 L 439.9324 269.7514 L 441.252 270.7816 L 442.4613 271.2247 L 447.4535 271.6789 L 450.0875 273.2215 L 452.1195 274.1824 L 456.3994 275.8048 L 471.8076 283.2925 L 485.7557 289.6298 L 503.7377 293.4925 L 517.9969 296.1061 L 531.328 296.2442 L 545.2812 297.3499 L 547.1927 300.1363 L 547.4485 304.0976 L 541.1417 325.7827 L 538.4576 328.8996 L 534.6743 327.9951 L 529.1602 323.5247 L 509.1113 316.088 L 494.4356 317.1884 L 478.7315 315.6732 L 467.3621 311.8144 L 463.333 311.4001 L 454.8087 310.0004 L 452.9372 309.9946 L 451.4573 311.02 L 450.0875 311.2384 L 445.642 309.7584 L 443.1285 307.7313 L 442.5663 306.7411 L 439.1648 304.0173 L 435.7629 299.7562 L 433.4 295.9334 L 432.3564 293.8779 L 432.1406 292.1164 L 431.9749 286.9763 L 431.6436 280.1501 Z M 368.5911 237.8004 L 364.9186 237.0065 L 363.8299 236.4089 L 356.7201 231.2688 L 353.8754 228.6186 L 350.8499 224.5721 L 350.2126 223.4741 L 350.1022 221.8242 L 350.5839 221.2728 L 354.1013 221.1804 L 357.1315 221.7785 L 359.6002 222.4795 L 361.9231 223.629 L 363.7595 225.124 L 367.9138 229.5154 L 370.2367 232.1084 L 371.4762 233.9536 L 371.9277 235.4486 L 371.0999 237.3462 L 370.2017 237.7485 L 368.5911 237.8004 Z" fill="#FFF" fill-opacity="1" stroke="#666" stroke-width="1" paint-order="fill" stroke-opacity="1" stroke-dasharray="" stroke-linecap="butt" stroke-linejoin="miter" stroke-miterlimit="10" transform="matrix(1,0,0,1,0,0)" clip-path="none"></path></g></svg>